<svg xmlns="http://www.w3.org/2000/svg" viewBox="0 -0.5 64 60" shape-rendering="crispEdges">
<metadata>Made with Pixels to Svg https://codepen.io/shshaw/pen/XbxvNj</metadata>
<path stroke="#222034" d="M40 0h4M40 1h4M40 2h4M40 3h4M36 4h8M36 5h8M36 6h8M36 7h8M32 8h12M32 9h12M32 10h12M32 11h12M28 12h16M28 13h16M28 14h16M28 15h16M24 16h20M24 17h20M24 18h20M24 19h20M20 20h24M20 21h24M20 22h24M20 23h24M16 24h28M16 25h28M16 26h28M16 27h28M12 28h32M12 29h32M12 30h32M12 31h32M16 32h28M16 33h28M16 34h28M16 35h28M20 36h24M20 37h24M20 38h24M20 39h24M24 40h20M24 41h20M24 42h20M24 43h20M28 44h16M28 45h16M28 46h16M28 47h16M32 48h12M32 49h12M32 50h12M32 51h12M36 52h8M36 53h8M36 54h8M36 55h8M40 56h4M40 57h4M40 58h4M40 59h4" />
</svg>