<svg xmlns="http://www.w3.org/2000/svg" viewBox="0 -0.5 84 84">
  <metadata>Made with Pixels to Svg https://codepen.io/shshaw/pen/XbxvNj</metadata>
  <path stroke="#222034" d="M20 8h44M20 9h44M20 10h44M20 11h44M16 12h52M16 13h52M16 14h52M16 15h52M12 16h8M28 16h4M64 16h8M12 17h8M28 17h4M64 17h8M12 18h8M28 18h4M64 18h8M12 19h8M28 19h4M64 19h8M8 20h8M28 20h4M68 20h8M8 21h8M28 21h4M68 21h8M8 22h8M28 22h4M68 22h8M8 23h8M28 23h4M68 23h8M8 24h8M28 24h4M68 24h8M8 25h8M28 25h4M68 25h8M8 26h8M28 26h4M68 26h8M8 27h8M28 27h4M68 27h8M8 28h8M28 28h4M48 28h4M68 28h8M8 29h8M28 29h4M48 29h4M68 29h8M8 30h8M28 30h4M48 30h4M68 30h8M8 31h8M28 31h4M48 31h4M68 31h8M8 32h8M28 32h4M44 32h8M68 32h8M8 33h8M28 33h4M44 33h8M68 33h8M8 34h8M28 34h4M44 34h8M68 34h8M8 35h8M28 35h4M44 35h8M68 35h8M8 36h8M28 36h4M40 36h24M68 36h8M8 37h8M28 37h4M40 37h24M68 37h8M8 38h8M28 38h4M40 38h24M68 38h8M8 39h8M28 39h4M40 39h24M68 39h8M8 40h8M28 40h4M36 40h28M68 40h8M8 41h8M28 41h4M36 41h28M68 41h8M8 42h8M28 42h4M36 42h28M68 42h8M8 43h8M28 43h4M36 43h28M68 43h8M8 44h8M28 44h4M40 44h24M68 44h8M8 45h8M28 45h4M40 45h24M68 45h8M8 46h8M28 46h4M40 46h24M68 46h8M8 47h8M28 47h4M40 47h24M68 47h8M8 48h8M28 48h4M44 48h8M68 48h8M8 49h8M28 49h4M44 49h8M68 49h8M8 50h8M28 50h4M44 50h8M68 50h8M8 51h8M28 51h4M44 51h8M68 51h8M8 52h8M28 52h4M48 52h4M68 52h8M8 53h8M28 53h4M48 53h4M68 53h8M8 54h8M28 54h4M48 54h4M68 54h8M8 55h8M28 55h4M48 55h4M68 55h8M8 56h8M28 56h4M68 56h8M8 57h8M28 57h4M68 57h8M8 58h8M28 58h4M68 58h8M8 59h8M28 59h4M68 59h8M8 60h8M28 60h4M68 60h8M8 61h8M28 61h4M68 61h8M8 62h8M28 62h4M68 62h8M8 63h8M28 63h4M68 63h8M12 64h8M28 64h4M64 64h8M12 65h8M28 65h4M64 65h8M12 66h8M28 66h4M64 66h8M12 67h8M28 67h4M64 67h8M16 68h52M16 69h52M16 70h52M16 71h52M20 72h44M20 73h44M20 74h44M20 75h44" />
</svg>