<svg xmlns="http://www.w3.org/2000/svg" viewBox="0 -0.5 64 64" shape-rendering="crispEdges">
<metadata>Made with Pixels to Svg https://codepen.io/shshaw/pen/XbxvNj</metadata>
<path stroke="#000000" d="M16 8h32M16 9h32M16 10h32M16 11h32M16 12h4M44 12h4M16 13h4M44 13h4M16 14h4M44 14h4M16 15h4M44 15h4M40 16h8M40 17h8M40 18h8M40 19h8M16 20h4M36 20h12M16 21h4M36 21h12M16 22h4M36 22h12M16 23h4M36 23h12M16 24h8M32 24h16M16 25h8M32 25h16M16 26h8M32 26h16M16 27h8M32 27h16M4 28h24M32 28h16M4 29h24M32 29h16M4 30h24M32 30h16M4 31h24M32 31h16M16 32h8M32 32h16M16 33h8M32 33h16M16 34h8M32 34h16M16 35h8M32 35h16M16 36h4M32 36h16M16 37h4M32 37h16M16 38h4M32 38h16M16 39h4M32 39h16M32 40h16M32 41h16M32 42h16M32 43h16M16 44h4M32 44h16M16 45h4M32 45h16M16 46h4M32 46h16M16 47h4M32 47h16M16 48h32M16 49h32M16 50h32M16 51h32M32 52h12M32 53h12M32 54h12M32 55h12M32 56h8M32 57h8M32 58h8M32 59h8M32 60h4M32 61h4M32 62h4M32 63h4" />
</svg>