<svg xmlns="http://www.w3.org/2000/svg" viewBox="0 -0.5 80 80">
  <metadata>Made with Pixels to Svg https://codepen.io/shshaw/pen/XbxvNj</metadata>
  <path stroke="#6c395c" d="M12 12h4M12 13h4M12 14h4M12 15h4M8 16h4M8 17h4M8 18h4M8 19h4M8 20h4M8 21h4M8 22h4M8 23h4M12 24h4M12 25h4M12 26h4M12 27h4M12 32h4M12 33h4M12 34h4M12 35h4M8 36h4M8 37h4M8 38h4M8 39h4M8 40h4M8 41h4M8 42h4M8 43h4M12 44h4M12 45h4M12 46h4M12 47h4M12 52h4M12 53h4M12 54h4M12 55h4M8 56h4M8 57h4M8 58h4M8 59h4M8 60h4M8 61h4M8 62h4M8 63h4M12 64h4M12 65h4M12 66h4M12 67h4" />
  <path stroke="#45283c" d="M16 12h52M16 13h52M16 14h52M16 15h52M68 16h4M68 17h4M68 18h4M68 19h4M68 20h4M68 21h4M68 22h4M68 23h4M16 24h52M16 25h52M16 26h52M16 27h52M16 32h52M16 33h52M16 34h52M16 35h52M68 36h4M68 37h4M68 38h4M68 39h4M68 40h4M68 41h4M68 42h4M68 43h4M16 44h52M16 45h52M16 46h52M16 47h52M16 52h52M16 53h52M16 54h52M16 55h52M68 56h4M68 57h4M68 58h4M68 59h4M68 60h4M68 61h4M68 62h4M68 63h4M16 64h52M16 65h52M16 66h52M16 67h52" />
  <path stroke="#72676f" d="M12 16h4M12 17h4M12 18h4M12 19h4M12 20h4M12 21h4M12 22h4M12 23h4M12 36h4M12 37h4M12 38h4M12 39h4M12 40h4M12 41h4M12 42h4M12 43h4M12 56h4M12 57h4M12 58h4M12 59h4M12 60h4M12 61h4M12 62h4M12 63h4" />
  <path stroke="#ad85a1" d="M16 16h52M16 17h52M16 18h52M16 19h52M16 36h52M16 37h52M16 38h52M16 39h52M16 56h52M16 57h52M16 58h52M16 59h52" />
  <path stroke="#663b59" d="M16 20h52M16 21h52M16 22h52M16 23h52M16 40h52M16 41h52M16 42h52M16 43h52M16 60h52M16 61h52M16 62h52M16 63h52" />
</svg>