<svg xmlns="http://www.w3.org/2000/svg" viewBox="0 -0.5 96 96">
  <metadata>Made with Pixels to Svg https://codepen.io/shshaw/pen/XbxvNj</metadata>
  <path stroke="#ffffff" d="M36 12h16M36 13h16M36 14h16M36 15h16M28 16h8M52 16h8M28 17h8M52 17h8M28 18h8M52 18h8M28 19h8M52 19h8M24 20h4M60 20h4M24 21h4M60 21h4M24 22h4M60 22h4M24 23h4M60 23h4M20 24h4M64 24h4M20 25h4M64 25h4M20 26h4M64 26h4M20 27h4M64 27h4M20 28h4M64 28h4M20 29h4M64 29h4M20 30h4M64 30h4M20 31h4M64 31h4M16 32h4M68 32h4M16 33h4M68 33h4M16 34h4M68 34h4M16 35h4M68 35h4M16 36h4M68 36h4M16 37h4M68 37h4M16 38h4M68 38h4M16 39h4M68 39h4M16 40h4M68 40h4M16 41h4M68 41h4M16 42h4M68 42h4M16 43h4M68 43h4M16 44h4M68 44h4M16 45h4M68 45h4M16 46h4M68 46h4M16 47h4M68 47h4M20 48h4M64 48h4M20 49h4M64 49h4M20 50h4M64 50h4M20 51h4M64 51h4M20 52h4M64 52h4M20 53h4M64 53h4M20 54h4M64 54h4M20 55h4M64 55h4M24 56h4M60 56h4M24 57h4M60 57h4M24 58h4M60 58h4M24 59h4M60 59h4M28 60h8M52 60h8M64 60h4M28 61h8M52 61h8M64 61h4M28 62h8M52 62h8M64 62h4M28 63h8M52 63h8M64 63h4M36 64h16M68 64h4M36 65h16M68 65h4M36 66h16M68 66h4M36 67h16M68 67h4M72 68h4M72 69h4M72 70h4M72 71h4M76 72h4M76 73h4M76 74h4M76 75h4M80 76h4M80 77h4M80 78h4M80 79h4" />
  <path stroke="#a85e50" d="M36 16h16M36 17h16M36 18h16M36 19h16M28 20h8M52 20h8M28 21h8M52 21h8M28 22h8M52 22h8M28 23h8M52 23h8M24 24h4M60 24h4M24 25h4M60 25h4M24 26h4M60 26h4M24 27h4M60 27h4M24 28h4M60 28h4M24 29h4M60 29h4M24 30h4M60 30h4M24 31h4M60 31h4M20 32h4M64 32h4M20 33h4M64 33h4M20 34h4M64 34h4M20 35h4M64 35h4M20 36h4M64 36h4M20 37h4M64 37h4M20 38h4M64 38h4M20 39h4M64 39h4" />
  <path stroke="#aceaec" d="M36 20h16M36 21h16M36 22h16M36 23h16M32 24h16M52 24h8M32 25h16M52 25h8M32 26h16M52 26h8M32 27h16M52 27h8M32 28h16M56 28h4M32 29h16M56 29h4M32 30h16M56 30h4M32 31h16M56 31h4M32 32h16M52 32h12M32 33h16M52 33h12M32 34h16M52 34h12M32 35h16M52 35h12M32 36h32M32 37h32M32 38h32M32 39h32M32 40h28M32 41h28M32 42h28M32 43h28M32 44h24M32 45h24M32 46h24M32 47h24M36 48h16M36 49h16M36 50h16M36 51h16" />
  <path stroke="#93c8c9" d="M28 24h4M28 25h4M28 26h4M28 27h4M28 28h4M28 29h4M28 30h4M28 31h4M24 32h8M24 33h8M24 34h8M24 35h8M24 36h8M24 37h8M24 38h8M24 39h8M24 40h8M60 40h4M24 41h8M60 41h4M24 42h8M60 42h4M24 43h8M60 43h4M24 44h8M56 44h8M24 45h8M56 45h8M24 46h8M56 46h8M24 47h8M56 47h8M28 48h8M52 48h8M28 49h8M52 49h8M28 50h8M52 50h8M28 51h8M52 51h8M28 52h32M28 53h32M28 54h32M28 55h32M36 56h16M36 57h16M36 58h16M36 59h16" />
  <path stroke="#dcf4f5" d="M48 24h4M48 25h4M48 26h4M48 27h4M48 28h8M48 29h8M48 30h8M48 31h8M48 32h4M48 33h4M48 34h4M48 35h4" />
  <path stroke="#945447" d="M20 40h4M64 40h4M20 41h4M64 41h4M20 42h4M64 42h4M20 43h4M64 43h4M20 44h4M64 44h4M20 45h4M64 45h4M20 46h4M64 46h4M20 47h4M64 47h4M24 48h4M60 48h4M24 49h4M60 49h4M24 50h4M60 50h4M24 51h4M60 51h4M24 52h4M60 52h4M24 53h4M60 53h4M24 54h4M60 54h4M24 55h4M60 55h4M28 56h8M52 56h8M28 57h8M52 57h8M28 58h8M52 58h8M28 59h8M52 59h8M36 60h16M36 61h16M36 62h16M36 63h16" />
  <path stroke="#c7c7c7" d="M64 56h4M64 57h4M64 58h4M64 59h4M60 60h4M68 60h4M60 61h4M68 61h4M60 62h4M68 62h4M60 63h4M68 63h4M64 64h4M72 64h4M64 65h4M72 65h4M64 66h4M72 66h4M64 67h4M72 67h4M68 68h4M76 68h4M68 69h4M76 69h4M68 70h4M76 70h4M68 71h4M76 71h4M72 72h4M80 72h4M72 73h4M80 73h4M72 74h4M80 74h4M72 75h4M80 75h4M76 76h4M84 76h4M76 77h4M84 77h4M76 78h4M84 78h4M76 79h4M84 79h4M80 80h8M80 81h8M80 82h8M80 83h8" />
</svg>