<svg xmlns="http://www.w3.org/2000/svg" viewBox="0 -0.5 92 92">
  <metadata>Made with Pixels to Svg https://codepen.io/shshaw/pen/XbxvNj</metadata>
  <path stroke="#503a2f" d="M68 8h8M68 9h8M68 10h8M68 11h8M80 16h4M80 17h4M80 18h4M80 19h4M80 20h4M80 21h4M80 22h4M80 23h4M76 24h4M76 25h4M76 26h4M76 27h4M72 28h4M72 29h4M72 30h4M72 31h4M68 32h4M68 33h4M68 34h4M68 35h4M64 36h4M64 37h4M64 38h4M64 39h4M60 40h4M60 41h4M60 42h4M60 43h4M56 44h4M56 45h4M56 46h4M56 47h4M52 48h4M52 49h4M52 50h4M52 51h4M48 52h4M48 53h4M48 54h4M48 55h4M44 56h4M44 57h4M44 58h4M44 59h4M40 60h4M40 61h4M40 62h4M40 63h4M36 64h4M36 65h4M36 66h4M36 67h4M8 68h4M32 68h4M8 69h4M32 69h4M8 70h4M32 70h4M8 71h4M32 71h4M8 72h4M28 72h4M8 73h4M28 73h4M8 74h4M28 74h4M8 75h4M28 75h4M12 76h4M24 76h4M12 77h4M24 77h4M12 78h4M24 78h4M12 79h4M24 79h4M16 80h8M16 81h8M16 82h8M16 83h8" />
  <path stroke="#222034" d="M76 8h8M76 9h8M76 10h8M76 11h8M76 12h8M76 13h8M76 14h8M76 15h8" />
  <path stroke="#7d5542" d="M64 12h4M64 13h4M64 14h4M64 15h4M60 16h4M60 17h4M60 18h4M60 19h4M56 20h4M56 21h4M56 22h4M56 23h4M52 24h4M52 25h4M52 26h4M52 27h4M48 28h4M48 29h4M48 30h4M48 31h4M44 32h4M44 33h4M44 34h4M44 35h4M40 36h4M40 37h4M40 38h4M40 39h4M36 40h4M36 41h4M36 42h4M36 43h4M32 44h4M32 45h4M32 46h4M32 47h4M28 48h4M28 49h4M28 50h4M28 51h4M24 52h4M24 53h4M24 54h4M24 55h4M20 56h4M20 57h4M20 58h4M20 59h4M16 60h4M16 61h4M16 62h4M16 63h4M12 64h4M12 65h4M12 66h4M12 67h4" />
  <path stroke="#eec39a" d="M68 12h8M68 13h8M68 14h8M68 15h8M64 16h12M64 17h12M64 18h12M64 19h12M68 20h4M68 21h4M68 22h4M68 23h4" />
  <path stroke="#c29f7e" d="M76 16h4M76 17h4M76 18h4M76 19h4M72 20h8M72 21h8M72 22h8M72 23h8M72 24h4M72 25h4M72 26h4M72 27h4" />
  <path stroke="#e2c070" d="M60 20h4M60 21h4M60 22h4M60 23h4M56 24h4M56 25h4M56 26h4M56 27h4M52 28h4M52 29h4M52 30h4M52 31h4" />
  <path stroke="#c9a03f" d="M64 20h4M64 21h4M64 22h4M64 23h4M60 24h8M60 25h8M60 26h8M60 27h8M56 28h8M56 29h8M56 30h8M56 31h8M48 32h12M48 33h12M48 34h12M48 35h12M44 36h12M44 37h12M44 38h12M44 39h12M40 40h12M40 41h12M40 42h12M40 43h12M36 44h12M36 45h12M36 46h12M36 47h12M32 48h12M32 49h12M32 50h12M32 51h12M28 52h12M28 53h12M28 54h12M28 55h12M24 56h12M24 57h12M24 58h12M24 59h12M20 60h12M20 61h12M20 62h12M20 63h12M20 64h8M20 65h8M20 66h8M20 67h8" />
  <path stroke="#846b32" d="M68 24h4M68 25h4M68 26h4M68 27h4M64 28h8M64 29h8M64 30h8M64 31h8M60 32h8M60 33h8M60 34h8M60 35h8M56 36h8M56 37h8M56 38h8M56 39h8M52 40h8M52 41h8M52 42h8M52 43h8M48 44h8M48 45h8M48 46h8M48 47h8M44 48h8M44 49h8M44 50h8M44 51h8M40 52h8M40 53h8M40 54h8M40 55h8M36 56h8M36 57h8M36 58h8M36 59h8M32 60h8M32 61h8M32 62h8M32 63h8M28 64h8M28 65h8M28 66h8M28 67h8M24 68h8M24 69h8M24 70h8M24 71h8" />
  <path stroke="#a86794" d="M16 64h4M16 65h4M16 66h4M16 67h4M20 68h4M20 69h4M20 70h4M20 71h4M20 72h8M20 73h8M20 74h8M20 75h8M16 76h8M16 77h8M16 78h8M16 79h8" />
  <path stroke="#e5b6d6" d="M12 68h4M12 69h4M12 70h4M12 71h4M12 72h4M12 73h4M12 74h4M12 75h4" />
  <path stroke="#d77bba" d="M16 68h4M16 69h4M16 70h4M16 71h4M16 72h4M16 73h4M16 74h4M16 75h4" />
</svg>