<svg xmlns="http://www.w3.org/2000/svg" viewBox="0 -0.5 84 104">
  <metadata>Made with Pixels to Svg https://codepen.io/shshaw/pen/XbxvNj</metadata>
  <path stroke="rgba(192,194,195,0.6549019607843137)" d="M28 12h28M28 13h28M28 14h28M28 15h28M24 16h4M56 16h4M24 17h4M56 17h4M24 18h4M56 18h4M24 19h4M56 19h4M12 20h60M12 21h60M12 22h60M12 23h60M8 24h4M72 24h4M8 25h4M72 25h4M8 26h4M72 26h4M8 27h4M72 27h4M8 28h4M72 28h4M8 29h4M72 29h4M8 30h4M72 30h4M8 31h4M72 31h4M12 32h4M68 32h4M12 33h4M68 33h4M12 34h4M68 34h4M12 35h4M68 35h4M12 36h4M68 36h4M12 37h4M68 37h4M12 38h4M68 38h4M12 39h4M68 39h4M12 40h4M24 40h4M40 40h4M56 40h4M68 40h4M12 41h4M24 41h4M40 41h4M56 41h4M68 41h4M12 42h4M24 42h4M40 42h4M56 42h4M68 42h4M12 43h4M24 43h4M40 43h4M56 43h4M68 43h4M12 44h4M20 44h4M36 44h4M52 44h4M68 44h4M12 45h4M20 45h4M36 45h4M52 45h4M68 45h4M12 46h4M20 46h4M36 46h4M52 46h4M68 46h4M12 47h4M20 47h4M36 47h4M52 47h4M68 47h4M12 48h4M20 48h4M36 48h4M52 48h4M68 48h4M12 49h4M20 49h4M36 49h4M52 49h4M68 49h4M12 50h4M20 50h4M36 50h4M52 50h4M68 50h4M12 51h4M20 51h4M36 51h4M52 51h4M68 51h4M12 52h4M20 52h4M36 52h4M52 52h4M68 52h4M12 53h4M20 53h4M36 53h4M52 53h4M68 53h4M12 54h4M20 54h4M36 54h4M52 54h4M68 54h4M12 55h4M20 55h4M36 55h4M52 55h4M68 55h4M12 56h4M20 56h4M36 56h4M52 56h4M68 56h4M12 57h4M20 57h4M36 57h4M52 57h4M68 57h4M12 58h4M20 58h4M36 58h4M52 58h4M68 58h4M12 59h4M20 59h4M36 59h4M52 59h4M68 59h4M12 60h4M20 60h4M36 60h4M52 60h4M68 60h4M12 61h4M20 61h4M36 61h4M52 61h4M68 61h4M12 62h4M20 62h4M36 62h4M52 62h4M68 62h4M12 63h4M20 63h4M36 63h4M52 63h4M68 63h4M12 64h4M20 64h4M36 64h4M52 64h4M68 64h4M12 65h4M20 65h4M36 65h4M52 65h4M68 65h4M12 66h4M20 66h4M36 66h4M52 66h4M68 66h4M12 67h4M20 67h4M36 67h4M52 67h4M68 67h4M12 68h4M20 68h4M36 68h4M52 68h4M68 68h4M12 69h4M20 69h4M36 69h4M52 69h4M68 69h4M12 70h4M20 70h4M36 70h4M52 70h4M68 70h4M12 71h4M20 71h4M36 71h4M52 71h4M68 71h4M12 72h4M20 72h4M36 72h4M52 72h4M68 72h4M12 73h4M20 73h4M36 73h4M52 73h4M68 73h4M12 74h4M20 74h4M36 74h4M52 74h4M68 74h4M12 75h4M20 75h4M36 75h4M52 75h4M68 75h4M12 76h4M20 76h4M36 76h4M52 76h4M68 76h4M12 77h4M20 77h4M36 77h4M52 77h4M68 77h4M12 78h4M20 78h4M36 78h4M52 78h4M68 78h4M12 79h4M20 79h4M36 79h4M52 79h4M68 79h4M12 80h4M24 80h4M40 80h4M56 80h4M68 80h4M12 81h4M24 81h4M40 81h4M56 81h4M68 81h4M12 82h4M24 82h4M40 82h4M56 82h4M68 82h4M12 83h4M24 83h4M40 83h4M56 83h4M68 83h4M12 84h4M68 84h4M12 85h4M68 85h4M12 86h4M68 86h4M12 87h4M68 87h4M16 88h52M16 89h52M16 90h52M16 91h52" />
  <path stroke="#bab3e7" d="M28 16h4M28 17h4M28 18h4M28 19h4" />
  <path stroke="#e7e5f8" d="M32 16h8M32 17h8M32 18h8M32 19h8" />
  <path stroke="#ffffff" d="M40 16h16M40 17h16M40 18h16M40 19h16M12 24h20M12 25h20M12 26h20M12 27h20M16 40h8M28 40h12M44 40h12M60 40h4M16 41h8M28 41h12M44 41h12M60 41h4M16 42h8M28 42h12M44 42h12M60 42h4M16 43h8M28 43h12M44 43h12M60 43h4M16 44h4M32 44h4M48 44h4M16 45h4M32 45h4M48 45h4M16 46h4M32 46h4M48 46h4M16 47h4M32 47h4M48 47h4M16 48h4M32 48h4M48 48h4M16 49h4M32 49h4M48 49h4M16 50h4M32 50h4M48 50h4M16 51h4M32 51h4M48 51h4M16 52h4M32 52h4M48 52h4M16 53h4M32 53h4M48 53h4M16 54h4M32 54h4M48 54h4M16 55h4M32 55h4M48 55h4M16 56h4M16 57h4M16 58h4M16 59h4M16 60h4M32 60h4M48 60h4M16 61h4M32 61h4M48 61h4M16 62h4M32 62h4M48 62h4M16 63h4M32 63h4M48 63h4M16 64h4M32 64h4M48 64h4M16 65h4M32 65h4M48 65h4M16 66h4M32 66h4M48 66h4M16 67h4M32 67h4M48 67h4M16 68h4M32 68h4M48 68h4M16 69h4M32 69h4M48 69h4M16 70h4M32 70h4M48 70h4M16 71h4M32 71h4M48 71h4M16 72h4M32 72h4M48 72h4M16 73h4M32 73h4M48 73h4M16 74h4M32 74h4M48 74h4M16 75h4M32 75h4M48 75h4M16 76h4M32 76h4M48 76h4M16 77h4M32 77h4M48 77h4M16 78h4M32 78h4M48 78h4M16 79h4M32 79h4M48 79h4M16 80h8M28 80h12M44 80h12M60 80h4M16 81h8M28 81h12M44 81h12M60 81h4M16 82h8M28 82h12M44 82h12M60 82h4M16 83h8M28 83h12M44 83h12M60 83h4" />
  <path stroke="#ece7ff" d="M32 24h40M32 25h40M32 26h40M32 27h40" />
  <path stroke="#f6f3ff" d="M12 28h20M12 29h20M12 30h20M12 31h20" />
  <path stroke="#a6a1d6" d="M32 28h40M32 29h40M32 30h40M32 31h40" />
  <path stroke="#4a456a" d="M16 32h52M16 33h52M16 34h52M16 35h52" />
  <path stroke="#f1f1f8" d="M16 36h52M16 37h52M16 38h52M16 39h52" />
  <path stroke="#fbfbff" d="M64 40h4M64 41h4M64 42h4M64 43h4M64 44h4M64 45h4M64 46h4M64 47h4M64 48h4M64 49h4M64 50h4M64 51h4M64 52h4M64 53h4M64 54h4M64 55h4M64 56h4M64 57h4M64 58h4M64 59h4M64 60h4M64 61h4M64 62h4M64 63h4M64 64h4M64 65h4M64 66h4M64 67h4M64 68h4M64 69h4M64 70h4M64 71h4M64 72h4M64 73h4M64 74h4M64 75h4M64 76h4M64 77h4M64 78h4M64 79h4M64 80h4M64 81h4M64 82h4M64 83h4M16 84h52M16 85h52M16 86h52M16 87h52" />
  <path stroke="#7c77a1" d="M24 44h4M40 44h4M56 44h4M24 45h4M40 45h4M56 45h4M24 46h4M40 46h4M56 46h4M24 47h4M40 47h4M56 47h4M24 48h4M40 48h4M56 48h4M24 49h4M40 49h4M56 49h4M24 50h4M40 50h4M56 50h4M24 51h4M40 51h4M56 51h4M24 52h4M40 52h4M56 52h4M24 53h4M40 53h4M56 53h4M24 54h4M40 54h4M56 54h4M24 55h4M40 55h4M56 55h4M24 56h4M40 56h4M56 56h4M24 57h4M40 57h4M56 57h4M24 58h4M40 58h4M56 58h4M24 59h4M40 59h4M56 59h4M24 60h4M40 60h4M56 60h4M24 61h4M40 61h4M56 61h4M24 62h4M40 62h4M56 62h4M24 63h4M40 63h4M56 63h4M24 64h4M40 64h4M56 64h4M24 65h4M40 65h4M56 65h4M24 66h4M40 66h4M56 66h4M24 67h4M40 67h4M56 67h4M24 68h4M40 68h4M56 68h4M24 69h4M40 69h4M56 69h4M24 70h4M40 70h4M56 70h4M24 71h4M40 71h4M56 71h4M24 72h4M40 72h4M56 72h4M24 73h4M40 73h4M56 73h4M24 74h4M40 74h4M56 74h4M24 75h4M40 75h4M56 75h4M24 76h4M40 76h4M56 76h4M24 77h4M40 77h4M56 77h4M24 78h4M40 78h4M56 78h4M24 79h4M40 79h4M56 79h4" />
  <path stroke="#5e56ab" d="M28 44h4M44 44h4M60 44h4M28 45h4M44 45h4M60 45h4M28 46h4M44 46h4M60 46h4M28 47h4M44 47h4M60 47h4M28 76h4M44 76h4M60 76h4M28 77h4M44 77h4M60 77h4M28 78h4M44 78h4M60 78h4M28 79h4M44 79h4M60 79h4" />
  <path stroke="#aeabc9" d="M28 48h4M28 49h4M28 50h4M28 51h4M28 52h4M28 53h4M28 54h4M28 55h4M28 56h4M28 57h4M28 58h4M28 59h4M28 60h4M28 61h4M28 62h4M28 63h4M28 64h4M28 65h4M28 66h4M28 67h4M28 68h4M28 69h4M28 70h4M28 71h4M28 72h4M28 73h4M28 74h4M28 75h4" />
  <path stroke="#a1a1bf" d="M44 48h4M60 48h4M44 49h4M60 49h4M44 50h4M60 50h4M44 51h4M60 51h4M44 52h4M60 52h4M44 53h4M60 53h4M44 54h4M60 54h4M44 55h4M60 55h4M44 56h4M60 56h4M44 57h4M60 57h4M44 58h4M60 58h4M44 59h4M60 59h4M44 60h4M60 60h4M44 61h4M60 61h4M44 62h4M60 62h4M44 63h4M60 63h4M44 64h4M60 64h4M44 65h4M60 65h4M44 66h4M60 66h4M44 67h4M60 67h4M44 68h4M60 68h4M44 69h4M60 69h4M44 70h4M60 70h4M44 71h4M60 71h4M44 72h4M60 72h4M44 73h4M60 73h4M44 74h4M60 74h4M44 75h4M60 75h4" />
</svg>