<svg xmlns="http://www.w3.org/2000/svg" viewBox="0 -0.5 80 80">
  <metadata>Made with Pixels to Svg https://codepen.io/shshaw/pen/XbxvNj</metadata>
  <path stroke="#222034" d="M32 4h16M32 5h16M32 6h16M32 7h16M24 8h32M24 9h32M24 10h32M24 11h32M16 12h48M16 13h48M16 14h48M16 15h48M12 16h20M48 16h20M12 17h20M48 17h20M12 18h20M48 18h20M12 19h20M48 19h20M12 20h16M52 20h16M12 21h16M52 21h16M12 22h16M52 22h16M12 23h16M52 23h16M8 24h16M56 24h16M8 25h16M56 25h16M8 26h16M56 26h16M8 27h16M56 27h16M8 28h16M56 28h16M8 29h16M56 29h16M8 30h16M56 30h16M8 31h16M56 31h16M4 32h24M52 32h24M4 33h24M52 33h24M4 34h24M52 34h24M4 35h24M52 35h24M4 36h28M48 36h28M4 37h28M48 37h28M4 38h28M48 38h28M4 39h28M48 39h28M4 40h72M4 41h72M4 42h72M4 43h72M4 44h24M52 44h24M4 45h24M52 45h24M4 46h24M52 46h24M4 47h24M52 47h24M8 48h12M60 48h12M8 49h12M60 49h12M8 50h12M60 50h12M8 51h12M60 51h12M8 52h8M64 52h8M8 53h8M64 53h8M8 54h8M64 54h8M8 55h8M64 55h8M12 56h4M64 56h4M12 57h4M64 57h4M12 58h4M64 58h4M12 59h4M64 59h4M12 60h8M60 60h8M12 61h8M60 61h8M12 62h8M60 62h8M12 63h8M60 63h8M16 64h12M52 64h12M16 65h12M52 65h12M16 66h12M52 66h12M16 67h12M52 67h12M24 68h12M44 68h12M24 69h12M44 69h12M24 70h12M44 70h12M24 71h12M44 71h12M32 72h16M32 73h16M32 74h16M32 75h16" />
  <path stroke="#ffffff" d="M32 16h16M32 17h16M32 18h16M32 19h16M28 20h24M28 21h24M28 22h24M28 23h24M24 24h32M24 25h32M24 26h32M24 27h32M24 28h32M24 29h32M24 30h32M24 31h32M28 32h24M28 33h24M28 34h24M28 35h24M32 36h16M32 37h16M32 38h16M32 39h16M28 44h24M28 45h24M28 46h24M28 47h24M20 48h40M20 49h40M20 50h40M20 51h40M16 52h48M16 53h48M16 54h48M16 55h48M16 56h48M16 57h48M16 58h48M16 59h48M20 60h40M20 61h40M20 62h40M20 63h40M28 64h24M28 65h24M28 66h24M28 67h24M36 68h8M36 69h8M36 70h8M36 71h8" />
</svg>