<svg xmlns="http://www.w3.org/2000/svg" viewBox="0 -0.5 192 68" shape-rendering="crispEdges">
<metadata>Made with Pixels to Svg https://codepen.io/shshaw/pen/XbxvNj</metadata>
<path stroke="#0e1624" d="M16 0h160M16 1h160M16 2h160M16 3h160M8 4h8M176 4h8M8 5h8M176 5h8M8 6h8M176 6h8M8 7h8M176 7h8M4 8h4M184 8h4M4 9h4M184 9h4M4 10h4M184 10h4M4 11h4M184 11h4M4 12h4M184 12h4M4 13h4M184 13h4M4 14h4M184 14h4M4 15h4M184 15h4M0 16h4M188 16h4M0 17h4M188 17h4M0 18h4M188 18h4M0 19h4M188 19h4M0 20h4M188 20h4M0 21h4M188 21h4M0 22h4M188 22h4M0 23h4M188 23h4M0 24h4M188 24h4M0 25h4M188 25h4M0 26h4M188 26h4M0 27h4M188 27h4M0 28h4M188 28h4M0 29h4M188 29h4M0 30h4M188 30h4M0 31h4M188 31h4M0 32h4M188 32h4M0 33h4M188 33h4M0 34h4M188 34h4M0 35h4M188 35h4M0 36h4M188 36h4M0 37h4M188 37h4M0 38h4M188 38h4M0 39h4M188 39h4M0 40h4M188 40h4M0 41h4M188 41h4M0 42h4M188 42h4M0 43h4M188 43h4M0 44h4M188 44h4M0 45h4M188 45h4M0 46h4M188 46h4M0 47h4M188 47h4M4 48h4M184 48h4M4 49h4M184 49h4M4 50h4M184 50h4M4 51h4M184 51h4M4 52h4M184 52h4M4 53h4M184 53h4M4 54h4M184 54h4M4 55h4M184 55h4M8 56h8M176 56h8M8 57h8M176 57h8M8 58h8M176 58h8M8 59h8M176 59h8M16 60h160M16 61h160M16 62h160M16 63h160" />
<path stroke="#bfd6ff" d="M16 4h4M32 4h4M40 4h4M148 4h4M156 4h4M172 4h4M16 5h4M32 5h4M40 5h4M148 5h4M156 5h4M172 5h4M16 6h4M32 6h4M40 6h4M148 6h4M156 6h4M172 6h4M16 7h4M32 7h4M40 7h4M148 7h4M156 7h4M172 7h4" />
<path stroke="#dfe4e6" d="M20 4h12M36 4h4M44 4h4M144 4h4M152 4h4M160 4h12M20 5h12M36 5h4M44 5h4M144 5h4M152 5h4M160 5h12M20 6h12M36 6h4M44 6h4M144 6h4M152 6h4M160 6h12M20 7h12M36 7h4M44 7h4M144 7h4M152 7h4M160 7h12" />
<path stroke="#a9b6ba" d="M48 4h96M48 5h96M48 6h96M48 7h96" />
<path stroke="#add4e0" d="M8 8h4M180 8h4M8 9h4M180 9h4M8 10h4M180 10h4M8 11h4M180 11h4" />
<path stroke="#84a2ab" d="M12 8h4M176 8h4M12 9h4M176 9h4M12 10h4M176 10h4M12 11h4M176 11h4M8 12h4M180 12h4M8 13h4M180 13h4M8 14h4M180 14h4M8 15h4M180 15h4M4 16h4M184 16h4M4 17h4M184 17h4M4 18h4M184 18h4M4 19h4M184 19h4M4 20h4M184 20h4M4 21h4M184 21h4M4 22h4M184 22h4M4 23h4M184 23h4M4 24h4M184 24h4M4 25h4M184 25h4M4 26h4M184 26h4M4 27h4M184 27h4M4 28h4M184 28h4M4 29h4M184 29h4M4 30h4M184 30h4M4 31h4M184 31h4M4 32h4M184 32h4M4 33h4M184 33h4M4 34h4M184 34h4M4 35h4M184 35h4M4 36h4M184 36h4M4 37h4M184 37h4M4 38h4M184 38h4M4 39h4M184 39h4M4 40h4M184 40h4M4 41h4M184 41h4M4 42h4M184 42h4M4 43h4M184 43h4M4 44h4M184 44h4M4 45h4M184 45h4M4 46h4M184 46h4M4 47h4M184 47h4M8 48h4M180 48h4M8 49h4M180 49h4M8 50h4M180 50h4M8 51h4M180 51h4M8 52h8M176 52h8M8 53h8M176 53h8M8 54h8M176 54h8M8 55h8M176 55h8M16 56h160M16 57h160M16 58h160M16 59h160" />
<path stroke="#879194" d="M16 8h160M16 9h160M16 10h160M16 11h160M12 12h4M176 12h4M12 13h4M176 13h4M12 14h4M176 14h4M12 15h4M176 15h4M8 16h4M180 16h4M8 17h4M180 17h4M8 18h4M180 18h4M8 19h4M180 19h4" />
<path stroke="#f7faff" d="M16 12h160M16 13h160M16 14h160M16 15h160M12 16h168M12 17h168M12 18h168M12 19h168M8 20h176M8 21h176M8 22h176M8 23h176M8 24h176M8 25h176M8 26h176M8 27h176M8 28h176M8 29h176M8 30h176M8 31h176M8 32h176M8 33h176M8 34h176M8 35h176M8 36h176M8 37h176M8 38h176M8 39h176M8 40h176M8 41h176M8 42h176M8 43h176M12 44h168M12 45h168M12 46h168M12 47h168M16 48h160M16 49h160M16 50h160M16 51h160" />
<path stroke="#a1c6d1" d="M8 44h4M180 44h4M8 45h4M180 45h4M8 46h4M180 46h4M8 47h4M180 47h4M12 48h4M176 48h4M12 49h4M176 49h4M12 50h4M176 50h4M12 51h4M176 51h4M16 52h160M16 53h160M16 54h160M16 55h160" />
<path stroke="rgba(14,22,36,0.5843137254901961)" d="M176 60h4M176 61h4M176 62h4M176 63h4M20 64h160M20 65h160M20 66h160M20 67h160" />
</svg>