<svg xmlns="http://www.w3.org/2000/svg" viewBox="0 -0.5 208 80" shape-rendering="crispEdges">
<metadata>Made with Pixels to Svg https://codepen.io/shshaw/pen/XbxvNj</metadata>
<path stroke="#0e1624" d="M24 8h160M24 9h160M24 10h160M24 11h160M16 12h8M184 12h8M16 13h8M184 13h8M16 14h8M184 14h8M16 15h8M184 15h8M12 16h4M192 16h4M12 17h4M192 17h4M12 18h4M192 18h4M12 19h4M192 19h4M12 20h4M192 20h4M12 21h4M192 21h4M12 22h4M192 22h4M12 23h4M192 23h4M8 24h4M196 24h4M8 25h4M196 25h4M8 26h4M196 26h4M8 27h4M196 27h4M8 28h4M196 28h4M8 29h4M196 29h4M8 30h4M196 30h4M8 31h4M196 31h4M8 32h4M196 32h4M8 33h4M196 33h4M8 34h4M196 34h4M8 35h4M196 35h4M8 36h4M196 36h4M8 37h4M196 37h4M8 38h4M196 38h4M8 39h4M196 39h4M8 40h4M196 40h4M8 41h4M196 41h4M8 42h4M196 42h4M8 43h4M196 43h4M8 44h4M196 44h4M8 45h4M196 45h4M8 46h4M196 46h4M8 47h4M196 47h4M8 48h4M196 48h4M8 49h4M196 49h4M8 50h4M196 50h4M8 51h4M196 51h4M8 52h4M196 52h4M8 53h4M196 53h4M8 54h4M196 54h4M8 55h4M196 55h4M12 56h4M192 56h4M12 57h4M192 57h4M12 58h4M192 58h4M12 59h4M192 59h4M12 60h4M192 60h4M12 61h4M192 61h4M12 62h4M192 62h4M12 63h4M192 63h4M16 64h8M184 64h8M16 65h8M184 65h8M16 66h8M184 66h8M16 67h8M184 67h8M24 68h160M24 69h160M24 70h160M24 71h160" />
<path stroke="#bfd6ff" d="M24 12h4M40 12h4M48 12h4M56 12h96M156 12h4M164 12h4M180 12h4M24 13h4M40 13h4M48 13h4M56 13h96M156 13h4M164 13h4M180 13h4M24 14h4M40 14h4M48 14h4M56 14h96M156 14h4M164 14h4M180 14h4M24 15h4M40 15h4M48 15h4M56 15h96M156 15h4M164 15h4M180 15h4M16 16h4M188 16h4M16 17h4M188 17h4M16 18h4M188 18h4M16 19h4M188 19h4" />
<path stroke="#90fcf7" d="M28 12h12M44 12h4M52 12h4M152 12h4M160 12h4M168 12h12M28 13h12M44 13h4M52 13h4M152 13h4M160 13h4M168 13h12M28 14h12M44 14h4M52 14h4M152 14h4M160 14h4M168 14h12M28 15h12M44 15h4M52 15h4M152 15h4M160 15h4M168 15h12" />
<path stroke="#90b7fd" d="M20 16h4M184 16h4M20 17h4M184 17h4M20 18h4M184 18h4M20 19h4M184 19h4M16 20h4M16 21h4M16 22h4M16 23h4" />
<path stroke="#639bff" d="M24 16h160M24 17h160M24 18h160M24 19h160M20 20h172M20 21h172M20 22h172M20 23h172M16 24h176M16 25h176M16 26h176M16 27h176M16 28h176M16 29h176M16 30h176M16 31h176M16 32h176M16 33h176M16 34h176M16 35h176M16 36h176M16 37h176M16 38h176M16 39h176M16 40h176M16 41h176M16 42h176M16 43h176M16 44h176M16 45h176M16 46h176M16 47h176M16 48h176M16 49h176M16 50h176M16 51h176M20 52h168M20 53h168M20 54h168M20 55h168M24 56h160M24 57h160M24 58h160M24 59h160" />
<path stroke="#4393ab" d="M12 24h4M192 24h4M12 25h4M192 25h4M12 26h4M192 26h4M12 27h4M192 27h4M12 28h4M192 28h4M12 29h4M192 29h4M12 30h4M192 30h4M12 31h4M192 31h4M12 32h4M192 32h4M12 33h4M192 33h4M12 34h4M192 34h4M12 35h4M192 35h4M12 36h4M192 36h4M12 37h4M192 37h4M12 38h4M192 38h4M12 39h4M192 39h4M12 40h4M192 40h4M12 41h4M192 41h4M12 42h4M192 42h4M12 43h4M192 43h4M12 44h4M192 44h4M12 45h4M192 45h4M12 46h4M192 46h4M12 47h4M192 47h4M12 48h4M192 48h4M12 49h4M192 49h4M12 50h4M192 50h4M12 51h4M192 51h4M12 52h8M188 52h8M12 53h8M188 53h8M12 54h8M188 54h8M12 55h8M188 55h8M16 56h8M184 56h8M16 57h8M184 57h8M16 58h8M184 58h8M16 59h8M184 59h8M16 60h176M16 61h176M16 62h176M16 63h176M24 64h160M24 65h160M24 66h160M24 67h160" />
<path stroke="rgba(14,22,36,0.5843137254901961)" d="M184 68h4M184 69h4M184 70h4M184 71h4M28 72h160M28 73h160M28 74h160M28 75h160" />
</svg>