<svg xmlns="http://www.w3.org/2000/svg" viewBox="0 -0.5 80 80">
  <metadata>Made with Pixels to Svg https://codepen.io/shshaw/pen/XbxvNj</metadata>
  <path stroke="#222034" d="M24 8h4M48 8h12M24 9h4M48 9h12M24 10h4M48 10h12M24 11h4M48 11h12M24 12h4M44 12h4M60 12h4M24 13h4M44 13h4M60 13h4M24 14h4M44 14h4M60 14h4M24 15h4M44 15h4M60 15h4M24 16h4M44 16h4M60 16h4M24 17h4M44 17h4M60 17h4M24 18h4M44 18h4M60 18h4M24 19h4M44 19h4M60 19h4M24 20h4M44 20h20M24 21h4M44 21h20M24 22h4M44 22h20M24 23h4M44 23h20M24 24h4M44 24h4M60 24h4M24 25h4M44 25h4M60 25h4M24 26h4M44 26h4M60 26h4M24 27h4M44 27h4M60 27h4M24 28h4M44 28h4M60 28h4M24 29h4M44 29h4M60 29h4M24 30h4M44 30h4M60 30h4M24 31h4M44 31h4M60 31h4M24 32h4M44 32h4M60 32h4M24 33h4M44 33h4M60 33h4M24 34h4M44 34h4M60 34h4M24 35h4M44 35h4M60 35h4M24 36h4M24 37h4M24 38h4M24 39h4M24 40h4M24 41h4M24 42h4M24 43h4M24 44h4M44 44h20M24 45h4M44 45h20M24 46h4M44 46h20M24 47h4M44 47h20M24 48h4M60 48h4M24 49h4M60 49h4M24 50h4M60 50h4M24 51h4M60 51h4M24 52h4M56 52h4M24 53h4M56 53h4M24 54h4M56 54h4M24 55h4M56 55h4M24 56h4M52 56h4M24 57h4M52 57h4M24 58h4M52 58h4M24 59h4M52 59h4M16 60h20M48 60h4M16 61h20M48 61h4M16 62h20M48 62h4M16 63h20M48 63h4M20 64h12M44 64h4M20 65h12M44 65h4M20 66h12M44 66h4M20 67h12M44 67h4M24 68h4M44 68h20M24 69h4M44 69h20M24 70h4M44 70h20M24 71h4M44 71h20" />
</svg>