<svg xmlns="http://www.w3.org/2000/svg" viewBox="0 -0.5 64 92">
  <metadata>Made with Pixels to Svg https://codepen.io/shshaw/pen/XbxvNj</metadata>
  <path stroke="#222034" d="M12 8h12M40 8h12M12 9h12M40 9h12M12 10h12M40 10h12M12 11h12M40 11h12M8 12h4M24 12h4M36 12h4M52 12h4M8 13h4M24 13h4M36 13h4M52 13h4M8 14h4M24 14h4M36 14h4M52 14h4M8 15h4M24 15h4M36 15h4M52 15h4M8 16h4M24 16h4M36 16h4M52 16h4M8 17h4M24 17h4M36 17h4M52 17h4M8 18h4M24 18h4M36 18h4M52 18h4M8 19h4M24 19h4M36 19h4M52 19h4M8 20h4M24 20h4M36 20h4M52 20h4M8 21h4M24 21h4M36 21h4M52 21h4M8 22h4M24 22h4M36 22h4M52 22h4M8 23h4M24 23h4M36 23h4M52 23h4M12 24h12M40 24h12M12 25h12M40 25h12M12 26h12M40 26h12M12 27h12M40 27h12M12 36h12M40 36h12M12 37h12M40 37h12M12 38h12M40 38h12M12 39h12M40 39h12M8 40h4M24 40h4M36 40h4M52 40h4M8 41h4M24 41h4M36 41h4M52 41h4M8 42h4M24 42h4M36 42h4M52 42h4M8 43h4M24 43h4M36 43h4M52 43h4M8 44h4M24 44h4M36 44h4M52 44h4M8 45h4M24 45h4M36 45h4M52 45h4M8 46h4M24 46h4M36 46h4M52 46h4M8 47h4M24 47h4M36 47h4M52 47h4M8 48h4M24 48h4M36 48h4M52 48h4M8 49h4M24 49h4M36 49h4M52 49h4M8 50h4M24 50h4M36 50h4M52 50h4M8 51h4M24 51h4M36 51h4M52 51h4M12 52h12M40 52h12M12 53h12M40 53h12M12 54h12M40 54h12M12 55h12M40 55h12M12 64h12M40 64h12M12 65h12M40 65h12M12 66h12M40 66h12M12 67h12M40 67h12M8 68h4M24 68h4M36 68h4M52 68h4M8 69h4M24 69h4M36 69h4M52 69h4M8 70h4M24 70h4M36 70h4M52 70h4M8 71h4M24 71h4M36 71h4M52 71h4M8 72h4M24 72h4M36 72h4M52 72h4M8 73h4M24 73h4M36 73h4M52 73h4M8 74h4M24 74h4M36 74h4M52 74h4M8 75h4M24 75h4M36 75h4M52 75h4M8 76h4M24 76h4M36 76h4M52 76h4M8 77h4M24 77h4M36 77h4M52 77h4M8 78h4M24 78h4M36 78h4M52 78h4M8 79h4M24 79h4M36 79h4M52 79h4M12 80h12M40 80h12M12 81h12M40 81h12M12 82h12M40 82h12M12 83h12M40 83h12" />
  <path stroke="#6f6a97" d="M12 12h12M40 12h12M12 13h12M40 13h12M12 14h12M40 14h12M12 15h12M40 15h12M12 16h12M40 16h12M12 17h12M40 17h12M12 18h12M40 18h12M12 19h12M40 19h12M12 20h12M40 20h12M12 21h12M40 21h12M12 22h12M40 22h12M12 23h12M40 23h12M12 40h12M40 40h12M12 41h12M40 41h12M12 42h12M40 42h12M12 43h12M40 43h12M12 44h12M40 44h12M12 45h12M40 45h12M12 46h12M40 46h12M12 47h12M40 47h12M12 48h12M40 48h12M12 49h12M40 49h12M12 50h12M40 50h12M12 51h12M40 51h12M12 68h12M40 68h12M12 69h12M40 69h12M12 70h12M40 70h12M12 71h12M40 71h12M12 72h12M40 72h12M12 73h12M40 73h12M12 74h12M40 74h12M12 75h12M40 75h12M12 76h12M40 76h12M12 77h12M40 77h12M12 78h12M40 78h12M12 79h12M40 79h12" />
</svg>