<svg xmlns="http://www.w3.org/2000/svg" viewBox="0 -0.5 80 80">
  <metadata>Made with Pixels to Svg https://codepen.io/shshaw/pen/XbxvNj</metadata>
  <path stroke="#cbb5c4" d="M12 12h4M12 13h4M12 14h4M12 15h4M8 16h4M8 17h4M8 18h4M8 19h4M8 20h4M8 21h4M8 22h4M8 23h4M12 24h4M12 25h4M12 26h4M12 27h4M12 32h4M12 33h4M12 34h4M12 35h4M8 36h4M8 37h4M8 38h4M8 39h4M8 40h4M8 41h4M8 42h4M8 43h4M12 44h4M12 45h4M12 46h4M12 47h4M12 52h4M12 53h4M12 54h4M12 55h4M8 56h4M8 57h4M8 58h4M8 59h4M8 60h4M8 61h4M8 62h4M8 63h4M12 64h4M12 65h4M12 66h4M12 67h4" />
  <path stroke="#bdb0b9" d="M16 12h4M16 13h4M16 14h4M16 15h4M16 24h4M16 25h4M16 26h4M16 27h4M16 32h4M16 33h4M16 34h4M16 35h4M16 44h4M16 45h4M16 46h4M16 47h4M16 52h4M16 53h4M16 54h4M16 55h4M16 64h4M16 65h4M16 66h4M16 67h4" />
  <path stroke="#fcecf7" d="M20 12h48M20 13h48M20 14h48M20 15h48M68 16h4M68 17h4M68 18h4M68 19h4M68 20h4M68 21h4M68 22h4M68 23h4M20 24h48M20 25h48M20 26h48M20 27h48M20 32h48M20 33h48M20 34h48M20 35h48M68 36h4M68 37h4M68 38h4M68 39h4M68 40h4M68 41h4M68 42h4M68 43h4M20 44h48M20 45h48M20 46h48M20 47h48M20 52h48M20 53h48M20 54h48M20 55h48M68 56h4M68 57h4M68 58h4M68 59h4M68 60h4M68 61h4M68 62h4M68 63h4M20 64h48M20 65h48M20 66h48M20 67h48" />
  <path stroke="#af93a6" d="M12 16h8M12 17h8M12 18h8M12 19h8M12 36h8M12 37h8M12 38h8M12 39h8M12 56h8M12 57h8M12 58h8M12 59h8" />
  <path stroke="#dba7cb" d="M20 16h48M20 17h48M20 18h48M20 19h48M20 36h48M20 37h48M20 38h48M20 39h48M20 56h48M20 57h48M20 58h48M20 59h48" />
  <path stroke="#9e7793" d="M12 20h8M12 21h8M12 22h8M12 23h8M12 40h8M12 41h8M12 42h8M12 43h8M12 60h8M12 61h8M12 62h8M12 63h8" />
  <path stroke="#b4689d" d="M20 20h48M20 21h48M20 22h48M20 23h48M20 40h48M20 41h48M20 42h48M20 43h48M20 60h48M20 61h48M20 62h48M20 63h48" />
</svg>