<svg xmlns="http://www.w3.org/2000/svg" viewBox="0 -0.5 84 84" shape-rendering="crispEdges">
<metadata>Made with Pixels to Svg https://codepen.io/shshaw/pen/XbxvNj</metadata>
<path stroke="#ffffff" d="M40 0h4M40 1h4M40 2h4M40 3h4M36 4h4M44 4h4M36 5h4M44 5h4M36 6h4M44 6h4M36 7h4M44 7h4M32 8h4M48 8h4M32 9h4M48 9h4M32 10h4M48 10h4M32 11h4M48 11h4M28 12h4M52 12h4M28 13h4M52 13h4M28 14h4M52 14h4M28 15h4M52 15h4M24 16h4M56 16h4M24 17h4M56 17h4M24 18h4M56 18h4M24 19h4M56 19h4M20 20h4M60 20h4M20 21h4M60 21h4M20 22h4M60 22h4M20 23h4M60 23h4M16 24h4M64 24h4M16 25h4M64 25h4M16 26h4M64 26h4M16 27h4M64 27h4M12 28h4M68 28h4M12 29h4M68 29h4M12 30h4M68 30h4M12 31h4M68 31h4M8 32h4M72 32h4M8 33h4M72 33h4M8 34h4M72 34h4M8 35h4M72 35h4M4 36h4M76 36h4M4 37h4M76 37h4M4 38h4M76 38h4M4 39h4M76 39h4M0 40h4M80 40h4M0 41h4M80 41h4M0 42h4M80 42h4M0 43h4M80 43h4M4 44h12M20 44h20M68 44h12M4 45h12M20 45h20M68 45h12M4 46h12M20 46h20M68 46h12M4 47h12M20 47h20M68 47h12M12 48h4M20 48h20M68 48h4M12 49h4M20 49h20M68 49h4M12 50h4M20 50h20M68 50h4M12 51h4M20 51h20M68 51h4M12 52h4M20 52h4M32 52h8M68 52h4M12 53h4M20 53h4M32 53h8M68 53h4M12 54h4M20 54h4M32 54h8M68 54h4M12 55h4M20 55h4M32 55h8M68 55h4M12 56h4M20 56h4M32 56h8M68 56h4M12 57h4M20 57h4M32 57h8M68 57h4M12 58h4M20 58h4M32 58h8M68 58h4M12 59h4M20 59h4M32 59h8M68 59h4M12 60h4M20 60h16M68 60h4M12 61h4M20 61h16M68 61h4M12 62h4M20 62h16M68 62h4M12 63h4M20 63h16M68 63h4M12 64h4M20 64h16M68 64h4M12 65h4M20 65h16M68 65h4M12 66h4M20 66h16M68 66h4M12 67h4M20 67h16M68 67h4M12 68h4M20 68h16M68 68h4M12 69h4M20 69h16M68 69h4M12 70h4M20 70h16M68 70h4M12 71h4M20 71h16M68 71h4M12 72h4M20 72h16M68 72h4M12 73h4M20 73h16M68 73h4M12 74h4M20 74h16M68 74h4M12 75h4M20 75h16M68 75h4M12 76h4M68 76h4M12 77h4M68 77h4M12 78h4M68 78h4M12 79h4M68 79h4M16 80h52M16 81h52M16 82h52M16 83h52" />
<path stroke="#000000" d="M40 4h4M40 5h4M40 6h4M40 7h4M36 8h4M44 8h4M36 9h4M44 9h4M36 10h4M44 10h4M36 11h4M44 11h4M32 12h4M48 12h4M32 13h4M48 13h4M32 14h4M48 14h4M32 15h4M48 15h4M28 16h4M52 16h4M28 17h4M52 17h4M28 18h4M52 18h4M28 19h4M52 19h4M24 20h4M56 20h4M24 21h4M56 21h4M24 22h4M56 22h4M24 23h4M56 23h4M20 24h4M60 24h4M20 25h4M60 25h4M20 26h4M60 26h4M20 27h4M60 27h4M16 28h4M64 28h4M16 29h4M64 29h4M16 30h4M64 30h4M16 31h4M64 31h4M12 32h4M68 32h4M12 33h4M68 33h4M12 34h4M68 34h4M12 35h4M68 35h4M8 36h4M72 36h4M8 37h4M72 37h4M8 38h4M72 38h4M8 39h4M72 39h4M16 44h4M64 44h4M16 45h4M64 45h4M16 46h4M64 46h4M16 47h4M64 47h4M16 48h4M64 48h4M16 49h4M64 49h4M16 50h4M64 50h4M16 51h4M64 51h4M16 52h4M64 52h4M16 53h4M64 53h4M16 54h4M64 54h4M16 55h4M64 55h4M16 56h4M64 56h4M16 57h4M64 57h4M16 58h4M64 58h4M16 59h4M64 59h4M16 60h4M64 60h4M16 61h4M64 61h4M16 62h4M64 62h4M16 63h4M64 63h4M16 64h4M64 64h4M16 65h4M64 65h4M16 66h4M64 66h4M16 67h4M64 67h4M16 68h4M64 68h4M16 69h4M64 69h4M16 70h4M64 70h4M16 71h4M64 71h4M16 72h4M64 72h4M16 73h4M64 73h4M16 74h4M64 74h4M16 75h4M64 75h4M16 76h52M16 77h52M16 78h52M16 79h52" />
<path stroke="#ff4e4e" d="M40 8h4M40 9h4M40 10h4M40 11h4M40 12h8M40 13h8M40 14h8M40 15h8M40 20h16M40 21h16M40 22h16M40 23h16M40 28h24M40 29h24M40 30h24M40 31h24M40 36h32M40 37h32M40 38h32M40 39h32" />
<path stroke="#ff0000" d="M36 12h4M36 13h4M36 14h4M36 15h4M28 20h12M28 21h12M28 22h12M28 23h12M20 28h20M20 29h20M20 30h20M20 31h20M12 36h28M12 37h28M12 38h28M12 39h28" />
<path stroke="#f50000" d="M32 16h8M32 17h8M32 18h8M32 19h8M24 24h16M24 25h16M24 26h16M24 27h16M16 32h24M16 33h24M16 34h24M16 35h24" />
<path stroke="#d35e5e" d="M40 16h12M40 17h12M40 18h12M40 19h12M40 24h20M40 25h20M40 26h20M40 27h20M40 32h28M40 33h28M40 34h28M40 35h28" />
<path stroke="#5c0000" d="M4 40h36M4 41h36M4 42h36M4 43h36" />
<path stroke="#340000" d="M40 40h40M40 41h40M40 42h40M40 43h40" />
<path stroke="#fffff0" d="M40 44h24M40 45h24M40 46h24M40 47h24M40 48h24M40 49h24M40 50h24M40 51h24M40 52h12M60 52h4M40 53h12M60 53h4M40 54h12M60 54h4M40 55h12M60 55h4M40 56h12M60 56h4M40 57h12M60 57h4M40 58h12M60 58h4M40 59h12M60 59h4M48 60h16M48 61h16M48 62h16M48 63h16M48 64h16M48 65h16M48 66h16M48 67h16M48 68h16M48 69h16M48 70h16M48 71h16M48 72h16M48 73h16M48 74h16M48 75h16" />
<path stroke="#aca2b2" d="M24 52h4M52 52h4M24 53h4M52 53h4M24 54h4M52 54h4M24 55h4M52 55h4M24 56h4M52 56h4M24 57h4M52 57h4M24 58h4M52 58h4M24 59h4M52 59h4" />
<path stroke="#7b7d7d" d="M28 52h4M56 52h4M28 53h4M56 53h4M28 54h4M56 54h4M28 55h4M56 55h4M28 56h4M56 56h4M28 57h4M56 57h4M28 58h4M56 58h4M28 59h4M56 59h4" />
<path stroke="#bd5108" d="M36 60h4M36 61h4M36 62h4M36 63h4M36 64h4M36 65h4M36 66h4M36 67h4M36 68h4M36 69h4M36 70h4M36 71h4M36 72h4M36 73h4M36 74h4M36 75h4" />
<path stroke="#f5741d" d="M40 60h8M40 61h8M40 62h8M40 63h8M40 64h8M40 65h8M40 66h8M40 67h8M40 68h8M40 69h8M40 70h8M40 71h8M40 72h8M40 73h8M40 74h8M40 75h8" />
</svg>