<svg xmlns="http://www.w3.org/2000/svg" viewBox="0 -0.5 80 88">
  <metadata>Made with Pixels to Svg https://codepen.io/shshaw/pen/XbxvNj</metadata>
  <path stroke="#b46631" d="M8 8h16M32 8h16M56 8h16M8 9h16M32 9h16M56 9h16M8 10h16M32 10h16M56 10h16M8 11h16M32 11h16M56 11h16" />
  <path stroke="#8d6f6f" d="M24 8h4M48 8h4M24 9h4M48 9h4M24 10h4M48 10h4M24 11h4M48 11h4M28 12h8M52 12h8M28 13h8M52 13h8M28 14h8M52 14h8M28 15h8M52 15h8M28 16h4M52 16h4M28 17h4M52 17h4M28 18h4M52 18h4M28 19h4M52 19h4" />
  <path stroke="#6d4747" d="M28 8h4M52 8h4M28 9h4M52 9h4M28 10h4M52 10h4M28 11h4M52 11h4M32 16h4M56 16h4M32 17h4M56 17h4M32 18h4M56 18h4M32 19h4M56 19h4" />
  <path stroke="#af6431" d="M8 12h4M8 13h4M8 14h4M8 15h4M8 16h4M8 17h4M8 18h4M8 19h4M8 20h4M8 21h4M8 22h4M8 23h4M8 24h4M8 25h4M8 26h4M8 27h4M8 28h4M8 29h4M8 30h4M8 31h4M8 32h4M8 33h4M8 34h4M8 35h4M8 36h4M8 37h4M8 38h4M8 39h4M8 40h4M8 41h4M8 42h4M8 43h4M8 44h4M8 45h4M8 46h4M8 47h4M8 48h4M8 49h4M8 50h4M8 51h4M8 52h4M8 53h4M8 54h4M8 55h4M8 56h4M8 57h4M8 58h4M8 59h4M8 60h4M8 61h4M8 62h4M8 63h4M8 64h4M8 65h4M8 66h4M8 67h4M8 68h4M8 69h4M8 70h4M8 71h4M8 72h4M8 73h4M8 74h4M8 75h4M8 76h4M8 77h4M8 78h4M8 79h4" />
  <path stroke="#df7126" d="M12 12h16M36 12h16M60 12h8M12 13h16M36 13h16M60 13h8M12 14h16M36 14h16M60 14h8M12 15h16M36 15h16M60 15h8M12 16h4M12 17h4M12 18h4M12 19h4M12 20h4M12 21h4M12 22h4M12 23h4M12 24h4M12 25h4M12 26h4M12 27h4M12 28h4M12 29h4M12 30h4M12 31h4M12 32h4M12 33h4M12 34h4M12 35h4M12 36h4M12 37h4M12 38h4M12 39h4M12 40h4M12 41h4M12 42h4M12 43h4M12 44h4M12 45h4M12 46h4M12 47h4M12 48h4M12 49h4M12 50h4M12 51h4M12 52h4M12 53h4M12 54h4M12 55h4M12 56h4M12 57h4M12 58h4M12 59h4M12 60h4M12 61h4M12 62h4M12 63h4M12 64h4M12 65h4M12 66h4M12 67h4M12 68h4M12 69h4M12 70h4M12 71h4" />
  <path stroke="#a05624" d="M68 12h4M68 13h4M68 14h4M68 15h4M68 16h4M68 17h4M68 18h4M68 19h4M68 20h4M68 21h4M68 22h4M68 23h4M68 24h4M68 25h4M68 26h4M68 27h4M68 28h4M68 29h4M68 30h4M68 31h4M68 32h4M68 33h4M68 34h4M68 35h4M68 36h4M68 37h4M68 38h4M68 39h4M68 40h4M68 41h4M68 42h4M68 43h4M68 44h4M68 45h4M68 46h4M68 47h4M68 48h4M68 49h4M68 50h4M68 51h4M68 52h4M68 53h4M68 54h4M68 55h4M68 56h4M68 57h4M68 58h4M68 59h4M68 60h4M68 61h4M68 62h4M68 63h4M68 64h4M68 65h4M68 66h4M68 67h4M68 68h4M68 69h4M68 70h4M68 71h4M68 72h4M68 73h4M68 74h4M68 75h4M68 76h4M68 77h4M68 78h4M68 79h4" />
  <path stroke="#e2c070" d="M16 16h12M36 16h4M16 17h12M36 17h4M16 18h12M36 18h4M16 19h12M36 19h4M16 20h24M16 21h24M16 22h24M16 23h24M16 24h8M16 25h8M16 26h8M16 27h8M16 28h24M16 29h24M16 30h24M16 31h24M16 32h24M16 33h24M16 34h24M16 35h24M16 36h8M28 36h4M16 37h8M28 37h4M16 38h8M28 38h4M16 39h8M28 39h4M16 40h24M16 41h24M16 42h24M16 43h24M16 44h24M16 45h24M16 46h24M16 47h24M16 48h8M28 48h4M16 49h8M28 49h4M16 50h8M28 50h4M16 51h8M28 51h4M16 52h24M16 53h24M16 54h24M16 55h24M16 56h24M16 57h24M16 58h24M16 59h24M16 60h8M28 60h4M16 61h8M28 61h4M16 62h8M28 62h4M16 63h8M28 63h4M16 64h24M16 65h24M16 66h24M16 67h24M16 68h24M16 69h24M16 70h24M16 71h24M16 72h24M16 73h24M16 74h24M16 75h24M20 76h20M20 77h20M20 78h20M20 79h20" />
  <path stroke="#c4a55c" d="M40 16h12M60 16h8M40 17h12M60 17h8M40 18h12M60 18h8M40 19h12M60 19h8M40 20h28M40 21h28M40 22h28M40 23h28M60 24h8M60 25h8M60 26h8M60 27h8M40 28h28M40 29h28M40 30h28M40 31h28M40 32h28M40 33h28M40 34h28M40 35h28M60 36h8M60 37h8M60 38h8M60 39h8M40 40h28M40 41h28M40 42h28M40 43h28M40 44h28M40 45h28M40 46h28M40 47h28M60 48h8M60 49h8M60 50h8M60 51h8M40 52h28M40 53h28M40 54h28M40 55h28M40 56h28M40 57h28M40 58h28M40 59h28M60 60h8M60 61h8M60 62h8M60 63h8M40 64h28M40 65h28M40 66h28M40 67h28M40 68h28M40 69h28M40 70h28M40 71h28M40 72h28M40 73h28M40 74h28M40 75h28M40 76h28M40 77h28M40 78h28M40 79h28" />
  <path stroke="#cd3939" d="M24 24h36M24 25h36M24 26h36M24 27h36" />
  <path stroke="#3e3e3e" d="M24 36h4M32 36h28M24 37h4M32 37h28M24 38h4M32 38h28M24 39h4M32 39h28M24 48h4M32 48h28M24 49h4M32 49h28M24 50h4M32 50h28M24 51h4M32 51h28M24 60h4M32 60h28M24 61h4M32 61h28M24 62h4M32 62h28M24 63h4M32 63h28" />
  <path stroke="#c98f67" d="M12 72h4M12 73h4M12 74h4M12 75h4M12 76h8M12 77h8M12 78h8M12 79h8" />
  <path stroke="#8d522a" d="M12 80h60M12 81h60M12 82h60M12 83h60" />
</svg>