<svg xmlns="http://www.w3.org/2000/svg" viewBox="0 -0.5 80 80">
  <metadata>Made with Pixels to Svg https://codepen.io/shshaw/pen/XbxvNj</metadata>
  <path stroke="#222034" d="M28 8h20M28 9h20M28 10h20M28 11h20M24 12h24M24 13h24M24 14h24M24 15h24M20 16h8M20 17h8M20 18h8M20 19h8M20 20h8M20 21h8M20 22h8M20 23h8M20 24h8M20 25h8M20 26h8M20 27h8M20 28h8M52 28h4M20 29h8M52 29h4M20 30h8M52 30h4M20 31h8M52 31h4M20 32h8M52 32h8M20 33h8M52 33h8M20 34h8M52 34h8M20 35h8M52 35h8M20 36h8M40 36h24M20 37h8M40 37h24M20 38h8M40 38h24M20 39h8M40 39h24M20 40h8M40 40h28M20 41h8M40 41h28M20 42h8M40 42h28M20 43h8M40 43h28M20 44h8M40 44h24M20 45h8M40 45h24M20 46h8M40 46h24M20 47h8M40 47h24M20 48h8M52 48h8M20 49h8M52 49h8M20 50h8M52 50h8M20 51h8M52 51h8M20 52h8M52 52h4M20 53h8M52 53h4M20 54h8M52 54h4M20 55h8M52 55h4M20 56h8M20 57h8M20 58h8M20 59h8M20 60h8M20 61h8M20 62h8M20 63h8M24 64h24M24 65h24M24 66h24M24 67h24M28 68h20M28 69h20M28 70h20M28 71h20" />
</svg>