<svg xmlns="http://www.w3.org/2000/svg" viewBox="0 -0.5 96 96">
  <metadata>Made with Pixels to Svg https://codepen.io/shshaw/pen/XbxvNj</metadata>
  <path stroke="#4c2a24" d="M36 16h16M36 17h16M36 18h16M36 19h16M28 20h8M52 20h8M28 21h8M52 21h8M28 22h8M52 22h8M28 23h8M52 23h8M24 24h4M60 24h4M24 25h4M60 25h4M24 26h4M60 26h4M24 27h4M60 27h4M20 28h4M64 28h4M20 29h4M64 29h4M20 30h4M64 30h4M20 31h4M64 31h4M20 32h4M64 32h4M20 33h4M64 33h4M20 34h4M64 34h4M20 35h4M64 35h4M16 36h4M68 36h4M16 37h4M68 37h4M16 38h4M68 38h4M16 39h4M68 39h4M16 40h4M68 40h4M16 41h4M68 41h4M16 42h4M68 42h4M16 43h4M68 43h4M16 44h4M68 44h4M16 45h4M68 45h4M16 46h4M68 46h4M16 47h4M68 47h4M16 48h4M68 48h4M16 49h4M68 49h4M16 50h4M68 50h4M16 51h4M68 51h4M20 52h4M64 52h4M20 53h4M64 53h4M20 54h4M64 54h4M20 55h4M64 55h4M20 56h4M64 56h4M20 57h4M64 57h4M20 58h4M64 58h4M20 59h4M64 59h4M24 60h4M60 60h4M24 61h4M60 61h4M24 62h4M60 62h4M24 63h4M60 63h4M28 64h8M52 64h8M64 64h4M28 65h8M52 65h8M64 65h4M28 66h8M52 66h8M64 66h4M28 67h8M52 67h8M64 67h4M36 68h16M68 68h4M36 69h16M68 69h4M36 70h16M68 70h4M36 71h16M68 71h4M72 72h4M72 73h4M72 74h4M72 75h4M76 76h4M76 77h4M76 78h4M76 79h4M80 80h4M80 81h4M80 82h4M80 83h4" />
  <path stroke="#a85e50" d="M36 20h16M36 21h16M36 22h16M36 23h16M28 24h8M52 24h8M28 25h8M52 25h8M28 26h8M52 26h8M28 27h8M52 27h8M24 28h4M60 28h4M24 29h4M60 29h4M24 30h4M60 30h4M24 31h4M60 31h4M24 32h4M60 32h4M24 33h4M60 33h4M24 34h4M60 34h4M24 35h4M60 35h4M20 36h4M64 36h4M20 37h4M64 37h4M20 38h4M64 38h4M20 39h4M64 39h4M20 40h4M64 40h4M20 41h4M64 41h4M20 42h4M64 42h4M20 43h4M64 43h4" />
  <path stroke="#aceaec" d="M36 24h16M36 25h16M36 26h16M36 27h16M32 28h16M52 28h8M32 29h16M52 29h8M32 30h16M52 30h8M32 31h16M52 31h8M32 32h16M56 32h4M32 33h16M56 33h4M32 34h16M56 34h4M32 35h16M56 35h4M32 36h16M52 36h12M32 37h16M52 37h12M32 38h16M52 38h12M32 39h16M52 39h12M32 40h32M32 41h32M32 42h32M32 43h32M32 44h28M32 45h28M32 46h28M32 47h28M32 48h24M32 49h24M32 50h24M32 51h24M36 52h16M36 53h16M36 54h16M36 55h16" />
  <path stroke="#93c8c9" d="M28 28h4M28 29h4M28 30h4M28 31h4M28 32h4M28 33h4M28 34h4M28 35h4M24 36h8M24 37h8M24 38h8M24 39h8M24 40h8M24 41h8M24 42h8M24 43h8M24 44h8M60 44h4M24 45h8M60 45h4M24 46h8M60 46h4M24 47h8M60 47h4M24 48h8M56 48h8M24 49h8M56 49h8M24 50h8M56 50h8M24 51h8M56 51h8M28 52h8M52 52h8M28 53h8M52 53h8M28 54h8M52 54h8M28 55h8M52 55h8M28 56h32M28 57h32M28 58h32M28 59h32M36 60h16M36 61h16M36 62h16M36 63h16" />
  <path stroke="#dcf4f5" d="M48 28h4M48 29h4M48 30h4M48 31h4M48 32h8M48 33h8M48 34h8M48 35h8M48 36h4M48 37h4M48 38h4M48 39h4" />
  <path stroke="#945447" d="M20 44h4M64 44h4M20 45h4M64 45h4M20 46h4M64 46h4M20 47h4M64 47h4M20 48h4M64 48h4M20 49h4M64 49h4M20 50h4M64 50h4M20 51h4M64 51h4M24 52h4M60 52h4M24 53h4M60 53h4M24 54h4M60 54h4M24 55h4M60 55h4M24 56h4M60 56h4M24 57h4M60 57h4M24 58h4M60 58h4M24 59h4M60 59h4M28 60h8M52 60h8M28 61h8M52 61h8M28 62h8M52 62h8M28 63h8M52 63h8M36 64h16M36 65h16M36 66h16M36 67h16" />
  <path stroke="#32313e" d="M64 60h4M64 61h4M64 62h4M64 63h4M60 64h4M68 64h4M60 65h4M68 65h4M60 66h4M68 66h4M60 67h4M68 67h4M64 68h4M72 68h4M64 69h4M72 69h4M64 70h4M72 70h4M64 71h4M72 71h4M68 72h4M76 72h4M68 73h4M76 73h4M68 74h4M76 74h4M68 75h4M76 75h4M72 76h4M80 76h4M72 77h4M80 77h4M72 78h4M80 78h4M72 79h4M80 79h4M76 80h4M84 80h4M76 81h4M84 81h4M76 82h4M84 82h4M76 83h4M84 83h4M80 84h8M80 85h8M80 86h8M80 87h8" />
</svg>