<svg xmlns="http://www.w3.org/2000/svg" viewBox="0 -0.5 96 96">
  <metadata>Made with Pixels to Svg https://codepen.io/shshaw/pen/XbxvNj</metadata>
  <path stroke="#3d3d41" d="M52 16h4M60 16h4M52 17h4M60 17h4M52 18h4M60 18h4M52 19h4M60 19h4M36 28h4M36 29h4M36 30h4M36 31h4" />
  <path stroke="#65656c" d="M56 16h4M64 16h4M56 17h4M64 17h4M56 18h4M64 18h4M56 19h4M64 19h4M48 20h4M48 21h4M48 22h4M48 23h4M40 24h4M40 25h4M40 26h4M40 27h4M32 32h4M32 33h4M32 34h4M32 35h4M28 44h4M48 44h4M28 45h4M48 45h4M28 46h4M48 46h4M28 47h4M48 47h4M28 48h4M48 48h4M28 49h4M48 49h4M28 50h4M48 50h4M28 51h4M48 51h4M28 52h4M28 53h4M28 54h4M28 55h4M32 56h4M32 57h4M32 58h4M32 59h4M36 64h4M36 65h4M36 66h4M36 67h4M40 68h4M40 69h4M40 70h4M40 71h4M52 76h12M52 77h12M52 78h12M52 79h12" />
  <path stroke="#32313e" d="M44 20h4M68 20h4M44 21h4M68 21h4M44 22h4M68 22h4M44 23h4M68 23h4M60 24h8M60 25h8M60 26h8M60 27h8M56 28h4M56 29h4M56 30h4M56 31h4M52 32h4M52 33h4M52 34h4M52 35h4M32 36h4M52 36h4M32 37h4M52 37h4M32 38h4M52 38h4M32 39h4M52 39h4M28 40h4M48 40h4M28 41h4M48 41h4M28 42h4M48 42h4M28 43h4M48 43h4M48 52h4M48 53h4M48 54h4M48 55h4M52 56h4M52 57h4M52 58h4M52 59h4M32 60h4M52 60h4M32 61h4M52 61h4M32 62h4M52 62h4M32 63h4M52 63h4M56 64h4M56 65h4M56 66h4M56 67h4M60 68h8M60 69h8M60 70h8M60 71h8M44 72h8M68 72h4M44 73h8M68 73h4M44 74h8M68 74h4M44 75h8M68 75h4M64 76h4M64 77h4M64 78h4M64 79h4" />
  <path stroke="#95949e" d="M52 20h4M52 21h4M52 22h4M52 23h4M44 24h8M44 25h8M44 26h8M44 27h8M40 28h8M40 29h8M40 30h8M40 31h8M36 32h8M36 33h8M36 34h8M36 35h8M36 36h4M36 37h4M36 38h4M36 39h4M32 40h8M32 41h8M32 42h8M32 43h8M32 44h8M32 45h8M32 46h8M32 47h8M32 48h8M32 49h8M32 50h8M32 51h8M32 52h8M32 53h8M32 54h8M32 55h8M36 56h4M36 57h4M36 58h4M36 59h4M36 60h4M36 61h4M36 62h4M36 63h4M40 64h4M40 65h4M40 66h4M40 67h4M44 68h8M44 69h8M44 70h8M44 71h8M52 72h4M52 73h4M52 74h4M52 75h4" />
  <path stroke="#bcbbc2" d="M56 20h4M56 21h4M56 22h4M56 23h4M52 24h4M52 25h4M52 26h4M52 27h4M48 28h4M48 29h4M48 30h4M48 31h4M44 32h4M44 33h4M44 34h4M44 35h4M40 36h4M40 37h4M40 38h4M40 39h4M40 40h4M40 41h4M40 42h4M40 43h4M40 44h4M40 45h4M40 46h4M40 47h4M40 48h8M40 49h8M40 50h8M40 51h8M40 52h8M40 53h8M40 54h8M40 55h8M40 56h12M40 57h12M40 58h12M40 59h12M40 60h12M40 61h12M40 62h12M40 63h12M44 64h12M44 65h12M44 66h12M44 67h12" />
  <path stroke="#d8d7e5" d="M60 20h8M60 21h8M60 22h8M60 23h8M56 24h4M56 25h4M56 26h4M56 27h4M52 28h4M52 29h4M52 30h4M52 31h4M48 32h4M48 33h4M48 34h4M48 35h4M44 36h8M44 37h8M44 38h8M44 39h8M44 40h4M44 41h4M44 42h4M44 43h4M44 44h4M44 45h4M44 46h4M44 47h4" />
  <path stroke="#a3a2ac" d="M52 68h8M52 69h8M52 70h8M52 71h8M56 72h4M56 73h4M56 74h4M56 75h4" />
  <path stroke="#7d7d84" d="M60 72h8M60 73h8M60 74h8M60 75h8" />
</svg>