<svg xmlns="http://www.w3.org/2000/svg" viewBox="0 -0.5 80 80">
  <metadata>Made with Pixels to Svg https://codepen.io/shshaw/pen/XbxvNj</metadata>
  <path stroke="#615f85" d="M36 8h8M36 9h8M36 10h8M36 11h8M32 12h4M44 12h4M32 13h4M44 13h4M32 14h4M44 14h4M32 15h4M44 15h4M32 16h4M44 16h4M32 17h4M44 17h4M32 18h4M44 18h4M32 19h4M44 19h4M32 20h4M44 20h4M32 21h4M44 21h4M32 22h4M44 22h4M32 23h4M44 23h4M32 24h4M44 24h4M32 25h4M44 25h4M32 26h4M44 26h4M32 27h4M44 27h4M32 28h4M44 28h4M32 29h4M44 29h4M32 30h4M44 30h4M32 31h4M44 31h4M12 32h20M12 33h20M12 34h20M12 35h20M8 36h4M8 37h4M8 38h4M8 39h4M8 40h4M8 41h4M8 42h4M8 43h4M12 44h20M12 45h20M12 46h20M12 47h20" />
  <path stroke="#9998b5" d="M36 12h4M36 13h4M36 14h4M36 15h4M36 16h4M36 17h4M36 18h4M36 19h4M36 20h4M36 21h4M36 22h4M36 23h4M36 24h4M36 25h4M36 26h4M36 27h4M36 28h4M36 29h4M36 30h4M36 31h4M36 32h4M36 33h4M36 34h4M36 35h4M12 36h24M12 37h24M12 38h24M12 39h24" />
  <path stroke="#ffffff" d="M40 12h4M40 13h4M40 14h4M40 15h4M40 16h4M40 17h4M40 18h4M40 19h4M40 20h4M40 21h4M40 22h4M40 23h4M40 24h4M40 25h4M40 26h4M40 27h4M40 28h4M40 29h4M40 30h4M40 31h4M40 32h4M40 33h4M40 34h4M40 35h4M40 36h28M40 37h28M40 38h28M40 39h28M40 40h4M40 41h4M40 42h4M40 43h4M36 44h4M36 45h4M36 46h4M36 47h4M36 48h4M36 49h4M36 50h4M36 51h4M36 52h4M36 53h4M36 54h4M36 55h4M36 56h4M36 57h4M36 58h4M36 59h4M36 60h4M36 61h4M36 62h4M36 63h4M36 64h4M36 65h4M36 66h4M36 67h4" />
  <path stroke="#e5e4fb" d="M32 32h4M44 32h4M32 33h4M44 33h4M32 34h4M44 34h4M32 35h4M44 35h4M44 44h4M44 45h4M44 46h4M44 47h4" />
  <path stroke="#dad9fa" d="M48 32h20M48 33h20M48 34h20M48 35h20M68 36h4M68 37h4M68 38h4M68 39h4M68 40h4M68 41h4M68 42h4M68 43h4M48 44h20M48 45h20M48 46h20M48 47h20" />
  <path stroke="#d6d6ec" d="M36 36h4M36 37h4M36 38h4M36 39h4" />
  <path stroke="#d1d0f6" d="M12 40h24M12 41h24M12 42h24M12 43h24" />
  <path stroke="#cdcde9" d="M36 40h4M36 41h4M36 42h4M36 43h4" />
  <path stroke="#f8f8ff" d="M44 40h24M44 41h24M44 42h24M44 43h24M40 44h4M40 45h4M40 46h4M40 47h4M40 48h4M40 49h4M40 50h4M40 51h4M40 52h4M40 53h4M40 54h4M40 55h4M40 56h4M40 57h4M40 58h4M40 59h4M40 60h4M40 61h4M40 62h4M40 63h4M40 64h4M40 65h4M40 66h4M40 67h4" />
  <path stroke="#bab8cc" d="M32 44h4M32 45h4M32 46h4M32 47h4" />
  <path stroke="#e6e6ff" d="M32 48h4M44 48h4M32 49h4M44 49h4M32 50h4M44 50h4M32 51h4M44 51h4M32 52h4M44 52h4M32 53h4M44 53h4M32 54h4M44 54h4M32 55h4M44 55h4M32 56h4M44 56h4M32 57h4M44 57h4M32 58h4M44 58h4M32 59h4M44 59h4M32 60h4M44 60h4M32 61h4M44 61h4M32 62h4M44 62h4M32 63h4M44 63h4M32 64h4M44 64h4M32 65h4M44 65h4M32 66h4M44 66h4M32 67h4M44 67h4M36 68h8M36 69h8M36 70h8M36 71h8" />
</svg>