<svg xmlns="http://www.w3.org/2000/svg" viewBox="0 -0.5 108 108">
  <metadata>Made with Pixels to Svg https://codepen.io/shshaw/pen/XbxvNj</metadata>
  <path stroke="#d6d3c7" d="M52 4h4M52 5h4M52 6h4M52 7h4M48 8h4M56 8h4M48 9h4M56 9h4M48 10h4M56 10h4M48 11h4M56 11h4M44 12h4M60 12h4M44 13h4M60 13h4M44 14h4M60 14h4M44 15h4M60 15h4M16 16h16M40 16h28M76 16h16M16 17h16M40 17h28M76 17h16M16 18h16M40 18h28M76 18h16M16 19h16M40 19h28M76 19h16M16 20h4M32 20h4M72 20h4M88 20h4M16 21h4M32 21h4M72 21h4M88 21h4M16 22h4M32 22h4M72 22h4M88 22h4M16 23h4M32 23h4M72 23h4M88 23h4M16 24h4M28 24h4M40 24h28M76 24h4M88 24h4M16 25h4M28 25h4M40 25h28M76 25h4M88 25h4M16 26h4M28 26h4M40 26h28M76 26h4M88 26h4M16 27h4M28 27h4M40 27h28M76 27h4M88 27h4M16 28h4M24 28h4M36 28h4M68 28h4M80 28h4M88 28h4M16 29h4M24 29h4M36 29h4M68 29h4M80 29h4M88 29h4M16 30h4M24 30h4M36 30h4M68 30h4M80 30h4M88 30h4M16 31h4M24 31h4M36 31h4M68 31h4M80 31h4M88 31h4M20 32h4M32 32h4M72 32h4M84 32h4M20 33h4M32 33h4M72 33h4M84 33h4M20 34h4M32 34h4M72 34h4M84 34h4M20 35h4M32 35h4M72 35h4M84 35h4M28 36h4M76 36h4M28 37h4M76 37h4M28 38h4M76 38h4M28 39h4M76 39h4M16 40h4M24 40h4M80 40h4M88 40h4M16 41h4M24 41h4M80 41h4M88 41h4M16 42h4M24 42h4M80 42h4M88 42h4M16 43h4M24 43h4M80 43h4M88 43h4M12 44h8M24 44h4M80 44h4M88 44h8M12 45h8M24 45h4M80 45h4M88 45h8M12 46h8M24 46h4M80 46h4M88 46h8M12 47h8M24 47h4M80 47h4M88 47h8M8 48h4M16 48h4M24 48h4M80 48h4M88 48h4M96 48h4M8 49h4M16 49h4M24 49h4M80 49h4M88 49h4M96 49h4M8 50h4M16 50h4M24 50h4M80 50h4M88 50h4M96 50h4M8 51h4M16 51h4M24 51h4M80 51h4M88 51h4M96 51h4M4 52h4M16 52h4M24 52h4M80 52h4M88 52h4M100 52h4M4 53h4M16 53h4M24 53h4M80 53h4M88 53h4M100 53h4M4 54h4M16 54h4M24 54h4M80 54h4M88 54h4M100 54h4M4 55h4M16 55h4M24 55h4M80 55h4M88 55h4M100 55h4M8 56h4M16 56h4M24 56h4M80 56h4M88 56h4M96 56h4M8 57h4M16 57h4M24 57h4M80 57h4M88 57h4M96 57h4M8 58h4M16 58h4M24 58h4M80 58h4M88 58h4M96 58h4M8 59h4M16 59h4M24 59h4M80 59h4M88 59h4M96 59h4M12 60h8M24 60h4M80 60h4M88 60h8M12 61h8M24 61h4M80 61h4M88 61h8M12 62h8M24 62h4M80 62h4M88 62h8M12 63h8M24 63h4M80 63h4M88 63h8M16 64h4M24 64h4M80 64h4M88 64h4M16 65h4M24 65h4M80 65h4M88 65h4M16 66h4M24 66h4M80 66h4M88 66h4M16 67h4M24 67h4M80 67h4M88 67h4M28 68h4M76 68h4M28 69h4M76 69h4M28 70h4M76 70h4M28 71h4M76 71h4M20 72h4M32 72h4M72 72h4M84 72h4M20 73h4M32 73h4M72 73h4M84 73h4M20 74h4M32 74h4M72 74h4M84 74h4M20 75h4M32 75h4M72 75h4M84 75h4M16 76h4M24 76h4M36 76h4M68 76h4M80 76h4M88 76h4M16 77h4M24 77h4M36 77h4M68 77h4M80 77h4M88 77h4M16 78h4M24 78h4M36 78h4M68 78h4M80 78h4M88 78h4M16 79h4M24 79h4M36 79h4M68 79h4M80 79h4M88 79h4M16 80h4M28 80h4M40 80h28M76 80h4M88 80h4M16 81h4M28 81h4M40 81h28M76 81h4M88 81h4M16 82h4M28 82h4M40 82h28M76 82h4M88 82h4M16 83h4M28 83h4M40 83h28M76 83h4M88 83h4M16 84h4M32 84h4M72 84h4M88 84h4M16 85h4M32 85h4M72 85h4M88 85h4M16 86h4M32 86h4M72 86h4M88 86h4M16 87h4M32 87h4M72 87h4M88 87h4M16 88h16M40 88h28M76 88h16M16 89h16M40 89h28M76 89h16M16 90h16M40 90h28M76 90h16M16 91h16M40 91h28M76 91h16M44 92h4M60 92h4M44 93h4M60 93h4M44 94h4M60 94h4M44 95h4M60 95h4M48 96h4M56 96h4M48 97h4M56 97h4M48 98h4M56 98h4M48 99h4M56 99h4M52 100h4M52 101h4M52 102h4M52 103h4" />
  <path stroke="#e0b916" d="M52 8h4M52 9h4M52 10h4M52 11h4M48 12h12M48 13h12M48 14h12M48 15h12M76 20h12M76 21h12M76 22h12M76 23h12M80 24h8M80 25h8M80 26h8M80 27h8M52 28h16M84 28h4M52 29h16M84 29h4M52 30h16M84 30h4M52 31h16M84 31h4M48 32h24M48 33h24M48 34h24M48 35h24M44 36h32M44 37h32M44 38h32M44 39h32M40 40h40M40 41h40M40 42h40M40 43h40M40 44h40M40 45h40M40 46h40M40 47h40M40 48h40M92 48h4M40 49h40M92 49h4M40 50h40M92 50h4M40 51h40M92 51h4M40 52h40M92 52h8M40 53h40M92 53h8M40 54h40M92 54h8M40 55h40M92 55h8M40 56h40M92 56h4M40 57h40M92 57h4M40 58h40M92 58h4M40 59h40M92 59h4M40 60h40M40 61h40M40 62h40M40 63h40M40 64h40M40 65h40M40 66h40M40 67h40M44 68h32M44 69h32M44 70h32M44 71h32M48 72h24M48 73h24M48 74h24M48 75h24M52 76h16M84 76h4M52 77h16M84 77h4M52 78h16M84 78h4M52 79h16M84 79h4M80 80h8M80 81h8M80 82h8M80 83h8M76 84h12M76 85h12M76 86h12M76 87h12M48 92h12M48 93h12M48 94h12M48 95h12M52 96h4M52 97h4M52 98h4M52 99h4" />
  <path stroke="#f5ca16" d="M20 20h12M20 21h12M20 22h12M20 23h12M20 24h8M20 25h8M20 26h8M20 27h8M20 28h4M40 28h8M20 29h4M40 29h8M20 30h4M40 30h8M20 31h4M40 31h8M36 32h8M36 33h8M36 34h8M36 35h8M32 36h4M32 37h4M32 38h4M32 39h4M28 40h4M28 41h4M28 42h4M28 43h4M28 44h4M28 45h4M28 46h4M28 47h4M12 48h4M28 48h4M12 49h4M28 49h4M12 50h4M28 50h4M12 51h4M28 51h4M8 52h8M28 52h4M8 53h8M28 53h4M8 54h8M28 54h4M8 55h8M28 55h4M12 56h4M28 56h4M12 57h4M28 57h4M12 58h4M28 58h4M12 59h4M28 59h4M28 60h4M28 61h4M28 62h4M28 63h4M28 64h4M28 65h4M28 66h4M28 67h4M32 68h4M32 69h4M32 70h4M32 71h4M36 72h4M36 73h4M36 74h4M36 75h4M20 76h4M40 76h8M20 77h4M40 77h8M20 78h4M40 78h8M20 79h4M40 79h8M20 80h8M20 81h8M20 82h8M20 83h8M20 84h12M20 85h12M20 86h12M20 87h12" />
  <path stroke="#f8d541" d="M48 28h4M48 29h4M48 30h4M48 31h4M44 32h4M44 33h4M44 34h4M44 35h4M40 36h4M40 37h4M40 38h4M40 39h4M36 40h4M36 41h4M36 42h4M36 43h4M36 44h4M36 45h4M36 46h4M36 47h4M36 48h4M36 49h4M36 50h4M36 51h4M36 52h4M36 53h4M36 54h4M36 55h4M36 56h4M36 57h4M36 58h4M36 59h4M36 60h4M36 61h4M36 62h4M36 63h4M36 64h4M36 65h4M36 66h4M36 67h4M40 68h4M40 69h4M40 70h4M40 71h4M44 72h4M44 73h4M44 74h4M44 75h4M48 76h4M48 77h4M48 78h4M48 79h4" />
  <path stroke="#efe1a4" d="M36 36h4M36 37h4M36 38h4M36 39h4M32 40h4M32 41h4M32 42h4M32 43h4M32 44h4M32 45h4M32 46h4M32 47h4M32 48h4M32 49h4M32 50h4M32 51h4M32 52h4M32 53h4M32 54h4M32 55h4M32 56h4M32 57h4M32 58h4M32 59h4M32 60h4M32 61h4M32 62h4M32 63h4M32 64h4M32 65h4M32 66h4M32 67h4M36 68h4M36 69h4M36 70h4M36 71h4M40 72h4M40 73h4M40 74h4M40 75h4" />
</svg>