<svg xmlns="http://www.w3.org/2000/svg" viewBox="0 -0.5 64 92">
  <metadata>Made with Pixels to Svg https://codepen.io/shshaw/pen/XbxvNj</metadata>
  <path stroke="#ffffff" d="M28 8h12M28 9h12M28 10h12M28 11h12M24 12h4M40 12h4M24 13h4M40 13h4M24 14h4M40 14h4M24 15h4M40 15h4M24 16h4M40 16h4M24 17h4M40 17h4M24 18h4M40 18h4M24 19h4M40 19h4M24 20h4M40 20h4M24 21h4M40 21h4M24 22h4M40 22h4M24 23h4M40 23h4M28 24h12M28 25h12M28 26h12M28 27h12M28 36h12M28 37h12M28 38h12M28 39h12M24 40h4M40 40h4M24 41h4M40 41h4M24 42h4M40 42h4M24 43h4M40 43h4M24 44h4M40 44h4M24 45h4M40 45h4M24 46h4M40 46h4M24 47h4M40 47h4M24 48h4M40 48h4M24 49h4M40 49h4M24 50h4M40 50h4M24 51h4M40 51h4M28 52h12M28 53h12M28 54h12M28 55h12M28 64h12M28 65h12M28 66h12M28 67h12M24 68h4M40 68h4M24 69h4M40 69h4M24 70h4M40 70h4M24 71h4M40 71h4M24 72h4M40 72h4M24 73h4M40 73h4M24 74h4M40 74h4M24 75h4M40 75h4M24 76h4M40 76h4M24 77h4M40 77h4M24 78h4M40 78h4M24 79h4M40 79h4M28 80h12M28 81h12M28 82h12M28 83h12" />
  <path stroke="#d8d3ff" d="M28 12h12M28 13h12M28 14h12M28 15h12M28 16h12M28 17h12M28 18h12M28 19h12M28 20h12M28 21h12M28 22h12M28 23h12M28 40h12M28 41h12M28 42h12M28 43h12M28 44h12M28 45h12M28 46h12M28 47h12M28 48h12M28 49h12M28 50h12M28 51h12M28 68h12M28 69h12M28 70h12M28 71h12M28 72h12M28 73h12M28 74h12M28 75h12M28 76h12M28 77h12M28 78h12M28 79h12" />
</svg>