<svg xmlns="http://www.w3.org/2000/svg" viewBox="0 -0.5 80 80">
  <metadata>Made with Pixels to Svg https://codepen.io/shshaw/pen/XbxvNj</metadata>
  <path stroke="#3b2233" d="M16 12h12M56 12h12M16 13h12M56 13h12M16 14h12M56 14h12M16 15h12M56 15h12M16 16h4M64 16h4M16 17h4M64 17h4M16 18h4M64 18h4M16 19h4M64 19h4M16 20h4M64 20h4M16 21h4M64 21h4M16 22h4M64 22h4M16 23h4M64 23h4" />
  <path stroke="#ad85a1" d="M20 16h4M60 16h4M20 17h4M60 17h4M20 18h4M60 18h4M20 19h4M60 19h4M24 20h4M56 20h4M24 21h4M56 21h4M24 22h4M56 22h4M24 23h4M56 23h4M28 24h4M52 24h4M28 25h4M52 25h4M28 26h4M52 26h4M28 27h4M52 27h4M32 28h4M48 28h4M32 29h4M48 29h4M32 30h4M48 30h4M32 31h4M48 31h4M36 32h4M44 32h4M36 33h4M44 33h4M36 34h4M44 34h4M36 35h4M44 35h4M40 36h4M40 37h4M40 38h4M40 39h4M40 40h4M40 41h4M40 42h4M40 43h4M36 44h4M44 44h4M36 45h4M44 45h4M36 46h4M44 46h4M36 47h4M44 47h4M32 48h4M48 48h4M32 49h4M48 49h4M32 50h4M48 50h4M32 51h4M48 51h4M28 52h4M52 52h4M28 53h4M52 53h4M28 54h4M52 54h4M28 55h4M52 55h4M24 56h4M56 56h4M24 57h4M56 57h4M24 58h4M56 58h4M24 59h4M56 59h4" />
  <path stroke="#72676f" d="M24 16h4M56 16h4M24 17h4M56 17h4M24 18h4M56 18h4M24 19h4M56 19h4M28 20h4M52 20h4M28 21h4M52 21h4M28 22h4M52 22h4M28 23h4M52 23h4M32 24h4M48 24h4M32 25h4M48 25h4M32 26h4M48 26h4M32 27h4M48 27h4M36 28h4M44 28h4M36 29h4M44 29h4M36 30h4M44 30h4M36 31h4M44 31h4M40 32h4M40 33h4M40 34h4M40 35h4M36 40h4M44 40h4M36 41h4M44 41h4M36 42h4M44 42h4M36 43h4M44 43h4M32 44h4M48 44h4M32 45h4M48 45h4M32 46h4M48 46h4M32 47h4M48 47h4M28 48h4M52 48h4M28 49h4M52 49h4M28 50h4M52 50h4M28 51h4M52 51h4M24 52h4M56 52h4M24 53h4M56 53h4M24 54h4M56 54h4M24 55h4M56 55h4M20 56h4M60 56h4M20 57h4M60 57h4M20 58h4M60 58h4M20 59h4M60 59h4" />
  <path stroke="#45283c" d="M28 16h4M52 16h4M28 17h4M52 17h4M28 18h4M52 18h4M28 19h4M52 19h4M32 20h4M48 20h4M32 21h4M48 21h4M32 22h4M48 22h4M32 23h4M48 23h4M20 24h4M36 24h4M44 24h4M60 24h4M20 25h4M36 25h4M44 25h4M60 25h4M20 26h4M36 26h4M44 26h4M60 26h4M20 27h4M36 27h4M44 27h4M60 27h4M24 28h4M40 28h4M56 28h4M24 29h4M40 29h4M56 29h4M24 30h4M40 30h4M56 30h4M24 31h4M40 31h4M56 31h4M28 32h4M52 32h4M28 33h4M52 33h4M28 34h4M52 34h4M28 35h4M52 35h4M32 36h4M48 36h4M32 37h4M48 37h4M32 38h4M48 38h4M32 39h4M48 39h4M28 40h4M52 40h4M28 41h4M52 41h4M28 42h4M52 42h4M28 43h4M52 43h4M24 44h4M40 44h4M56 44h4M24 45h4M40 45h4M56 45h4M24 46h4M40 46h4M56 46h4M24 47h4M40 47h4M56 47h4M20 48h4M36 48h4M44 48h4M60 48h4M20 49h4M36 49h4M44 49h4M60 49h4M20 50h4M36 50h4M44 50h4M60 50h4M20 51h4M36 51h4M44 51h4M60 51h4M32 52h4M48 52h4M32 53h4M48 53h4M32 54h4M48 54h4M32 55h4M48 55h4M28 56h4M52 56h4M28 57h4M52 57h4M28 58h4M52 58h4M28 59h4M52 59h4" />
  <path stroke="#663b59" d="M20 20h4M60 20h4M20 21h4M60 21h4M20 22h4M60 22h4M20 23h4M60 23h4M24 24h4M56 24h4M24 25h4M56 25h4M24 26h4M56 26h4M24 27h4M56 27h4M28 28h4M52 28h4M28 29h4M52 29h4M28 30h4M52 30h4M28 31h4M52 31h4M32 32h4M48 32h4M32 33h4M48 33h4M32 34h4M48 34h4M32 35h4M48 35h4M36 36h4M44 36h4M36 37h4M44 37h4M36 38h4M44 38h4M36 39h4M44 39h4M32 40h4M48 40h4M32 41h4M48 41h4M32 42h4M48 42h4M32 43h4M48 43h4M28 44h4M52 44h4M28 45h4M52 45h4M28 46h4M52 46h4M28 47h4M52 47h4M24 48h4M56 48h4M24 49h4M56 49h4M24 50h4M56 50h4M24 51h4M56 51h4M20 52h4M60 52h4M20 53h4M60 53h4M20 54h4M60 54h4M20 55h4M60 55h4" />
  <path stroke="#76556c" d="M16 52h4M64 52h4M16 53h4M64 53h4M16 54h4M64 54h4M16 55h4M64 55h4M16 56h4M64 56h4M16 57h4M64 57h4M16 58h4M64 58h4M16 59h4M64 59h4M16 60h12M56 60h12M16 61h12M56 61h12M16 62h12M56 62h12M16 63h12M56 63h12" />
</svg>