<svg width="512" height="512" viewBox="0 0 512 512" fill="none" xmlns="http://www.w3.org/2000/svg">
<path fill-rule="evenodd" clip-rule="evenodd" d="M136.413 142.587L23 256L133.901 366.901C137.574 370.955 141.445 374.827 145.499 378.499L256.345 489.345L368.143 377.547C371.474 374.478 374.678 371.274 377.748 367.943L489.69 256L256.345 22.6548L142.787 136.213C140.605 138.279 138.48 140.405 136.413 142.587ZM136.413 142.587C108.389 172.175 91.2002 212.13 91.2002 256.1C91.2002 298.74 107.365 337.605 133.901 366.901L145.499 378.499C174.795 405.035 213.66 421.2 256.3 421.2C299.448 421.2 338.73 404.648 368.143 377.547L377.748 367.943C404.848 338.53 421.4 299.248 421.4 256.1C421.4 164.918 347.482 91 256.3 91C212.33 91 172.375 108.189 142.787 136.213L136.413 142.587Z" fill="#1400FF"/>
<path d="M217.42 355.562L217.309 355.452L217.215 355.562L139.844 275.912L178.723 236.287L217.314 276.023L333.471 156.443L372.156 196.257L217.42 355.562Z" fill="#1400FF"/>
</svg>
